<?xml version="1.0" encoding="utf-8"?>
<!-- Generator: Adobe Illustrator 19.0.0, SVG Export Plug-In . SVG Version: 6.00 Build 0)  -->
<svg version="1.1" id="Layer_1" xmlns="http://www.w3.org/2000/svg" xmlns:xlink="http://www.w3.org/1999/xlink" x="0px" y="0px"
	 viewBox="0 0 118.3 100.9" style="enable-background:new 0 0 118.3 100.9;" xml:space="preserve">
<style type="text/css">
	.st0{opacity:0.8;fill:#6A3A96;}
	.st1{fill:#FFFFFF;}
</style>
<rect id="XMLID_27_" class="st0" width="118.3" height="100.9"/>
<g id="XMLID_28_">
	<g id="XMLID_31_" transform="translate(0,-952.36218)">
		<path id="XMLID_29_" class="st1" d="M29.3,973c-5.7,0-10.4,4.7-10.4,10.4v41.6c0,5.7,4.7,10.4,10.4,10.4h58
			c5.7,0,10.4-4.7,10.4-10.4v-13.9h-6.9v13.9c0,2-1.5,3.5-3.5,3.5h-58c-2,0-3.5-1.3-3.5-3.3v-41.7c0-2,1.5-3.5,3.5-3.5h30.3V973
			H29.3z"/>
	</g>
	<path id="XMLID_43_" class="st1" d="M51.5,58.9c3.2,3.2,4.8,4.8,8,8c1.7,1.7,2.9,1.7,4.7,0c3.6-3.6,18.7-18.6,22.3-22.2l0.9-0.9
		l1.5,1.5c2.3,2.3,4.6,4.5,6.8,6.8c0.9,0.9,1.9,1.2,3.1,0.7c1.1-0.5,1.5-1.5,1.5-2.6c0-9.8,0-19.6,0-29.4c0-1.9-1-2.8-2.8-2.8
		c-9.8,0-19.6,0-29.5,0c-0.6,0-1.2,0.2-1.7,0.5c-1.4,0.9-1.4,2.6-0.1,4c2.3,2.3,4.6,4.6,6.9,6.9c0.3,0.3,1.3,1.4,1.7,1.7L73.8,32
		c-3.6,3.6-18.6,18.7-22.2,22.3C49.8,56,49.8,57.2,51.5,58.9z"/>
</g>
</svg>
