<?xml version="1.0" encoding="utf-8"?>
<svg version="1.1" id="book" xmlns="http://www.w3.org/2000/svg" xmlns:xlink="http://www.w3.org/1999/xlink" x="0px" y="0px"
	 viewBox="0 0 34 25" style="enable-background:new 0 0 34 25;" xml:space="preserve">
<style type="text/css">
	.st0{fill:#FFFFFF;}
</style>
<g>
	<path class="st0" d="M2.19,1.56c6.84-4,14.06,1.5,14.06,1.5v18.38c0,0-5.06-4.31-14.06-1.75V1.56z"/>
	<path class="st0" d="M31.81,1.56c-6.84-4-14.06,1.5-14.06,1.5v18.38c0,0,5.06-4.31,14.06-1.75V1.56z"/>
	<path class="st0" d="M17.02,24.95l-0.36-0.34c-6.18-5.78-15.87-2.71-15.96-2.68l-0.66,0.22l0-19.26h1v17.89
		c2.36-0.65,10.23-2.2,15.95,2.77c5.07-4.84,13.6-3.19,16.02-2.59V3.06h1v19.23l-0.64-0.19c-0.11-0.03-10.67-3.09-16,2.49
		L17.02,24.95z"/>
</g>
</svg>
