<?xml version="1.0" encoding="utf-8"?>
<svg viewBox="0 0 110 110" width="110" height="110" xmlns="http://www.w3.org/2000/svg">
  <g transform="matrix(0.7834759950637817, 0, 0, 0.7834759950637817, 0, -1.7763568394002505e-15)">
    <g>
      <g>
        <path fill="#6256A3" d="M93,38.2h-3.1c-0.8,3.1-3.5,5.3-6.8,5.4l-25.5,0c-3.3-0.1-6.1-2.3-7.1-5.4h-3.2c-1.2,0-2.1,0.9-2.1,2.1&#10;&#9;&#9;&#9;&#9;V102c0,1.2,0.9,2.1,2.1,2.1H93c1.2,0,2.1-0.9,2.1-2.1V40.3C95.1,39.1,94.1,38.2,93,38.2z M66.6,71.1h-8.1c-0.5,0-0.9-0.4-0.9-0.9&#10;&#9;&#9;&#9;&#9;v-8.1c0-0.5,0.4-0.9,0.9-0.9h8.1c0.5,0,0.9,0.4,0.9,0.9v8.1C67.5,70.7,67.1,71.1,66.6,71.1z M67.5,75.6v8.1&#10;&#9;&#9;&#9;&#9;c0,0.5-0.4,0.9-0.9,0.9h-8.1c-0.5,0-0.9-0.4-0.9-0.9v-8.1c0-0.5,0.4-0.9,0.9-0.9h8.1C67.1,74.7,67.5,75.1,67.5,75.6z M64.8,55&#10;&#9;&#9;&#9;&#9;c-0.5,0-0.9-0.4-0.9-0.9c0-0.5,0.4-0.9,0.9-0.9h12.6c0.5,0,0.9,0.4,0.9,0.9c0,0.5-0.4,0.9-0.9,0.9H64.8z M50.5,48.7&#10;&#9;&#9;&#9;&#9;c0-0.5,0.4-0.9,0.9-0.9h8.1c0.5,0,0.9,0.4,0.9,0.9v8.1c0,0.5-0.4,0.9-0.9,0.9h-8.1c-0.5,0-0.9-0.4-0.9-0.9V48.7z M60.4,97.1&#10;&#9;&#9;&#9;&#9;c0,0.5-0.4,0.9-0.9,0.9h-8.1c-0.5,0-0.9-0.4-0.9-0.9V89c0-0.5,0.4-0.9,0.9-0.9h8.1c0.5,0,0.9,0.4,0.9,0.9V97.1z M77.4,96.2H64.8&#10;&#9;&#9;&#9;&#9;c-0.5,0-0.9-0.4-0.9-0.9c0-0.5,0.4-0.9,0.9-0.9h12.6c0.5,0,0.9,0.4,0.9,0.9C78.3,95.8,77.9,96.2,77.4,96.2z M88.2,92.6H64.8&#10;&#9;&#9;&#9;&#9;c-0.5,0-0.9-0.4-0.9-0.9s0.4-0.9,0.9-0.9h23.3c0.5,0,0.9,0.4,0.9,0.9S88.6,92.6,88.2,92.6z M70.2,81.9c0-0.5,0.4-0.9,0.9-0.9&#10;&#9;&#9;&#9;&#9;h12.6c0.5,0,0.9,0.4,0.9,0.9c0,0.5-0.4,0.9-0.9,0.9H71.1C70.6,82.8,70.2,82.4,70.2,81.9z M88.2,78.3h-17c-0.5,0-0.9-0.4-0.9-0.9&#10;&#9;&#9;&#9;&#9;c0-0.5,0.4-0.9,0.9-0.9h17c0.5,0,0.9,0.4,0.9,0.9C89,77.9,88.6,78.3,88.2,78.3z M70.2,68.4c0-0.5,0.4-0.9,0.9-0.9h12.6&#10;&#9;&#9;&#9;&#9;c0.5,0,0.9,0.4,0.9,0.9c0,0.5-0.4,0.9-0.9,0.9H71.1C70.6,69.3,70.2,68.9,70.2,68.4z M88.2,64.8h-17c-0.5,0-0.9-0.4-0.9-0.9&#10;&#9;&#9;&#9;&#9;s0.4-0.9,0.9-0.9h17c0.5,0,0.9,0.4,0.9,0.9S88.6,64.8,88.2,64.8z M88.2,51.4H64.8c-0.5,0-0.9-0.4-0.9-0.9c0-0.5,0.4-0.9,0.9-0.9&#10;&#9;&#9;&#9;&#9;h23.3c0.5,0,0.9,0.4,0.9,0.9C89,51,88.6,51.4,88.2,51.4z"/>
      </g>
    </g>
    <g>
      <rect x="59.5" y="63" fill="#6256A3" width="6.3" height="6.3"/>
    </g>
    <g>
      <rect x="59.5" y="76.5" fill="#6256A3" width="6.3" height="6.3"/>
    </g>
    <g>
      <path fill="#6256A3" d="M52.7,53.7c-0.3-0.4-0.2-1,0.2-1.3c0.4-0.3,1-0.2,1.3,0.2l0.8,1.1l1.7-3.2c0-0.1,0.1-0.2,0.2-0.3&#10;&#9;&#9;&#9;c0.3-0.4,0.9-0.4,1.3-0.1s0.4,0.9,0.1,1.3l-2.3,4.5h2.7v-6.3h-6.3v6.3h2.1L52.7,53.7z"/>
    </g>
    <g>
      <g>
        <path fill="#6256A3" d="M70.2,0C31.4,0,0,31.4,0,70.2s31.4,70.2,70.2,70.2s70.2-31.4,70.2-70.2S109,0,70.2,0z M99.1,102&#10;&#9;&#9;&#9;&#9;c0,3.4-2.8,6.1-6.1,6.1H47.4c-3.4,0-6.1-2.8-6.1-6.1V40.3c0-3.4,2.8-6.1,6.1-6.1h2.8c0.1-1,1-1.8,2-1.8h35.9c1,0,1.9,0.8,2,1.8&#10;&#9;&#9;&#9;&#9;H93c3.4,0,6.1,2.8,6.1,6.1V102z"/>
      </g>
    </g>
    <g>
      <path fill="#6256A3" d="M57.7,39.5l25.4,0c1.6-0.1,2.9-1.5,3-3.1H54.3C54.5,38.1,56,39.4,57.7,39.5z"/>
    </g>
    <g>
      <rect x="52.3" y="89.9" fill="#6256A3" width="6.3" height="6.3"/>
    </g>
  </g>
</svg>