<?xml version="1.0" encoding="utf-8"?>
<svg version="1.1" id="chevron-circle-white-gradient"
	 xmlns="http://www.w3.org/2000/svg" xmlns:xlink="http://www.w3.org/1999/xlink" x="0px" y="0px" viewBox="0 0 20 20"
	 style="enable-background:new 0 0 20 20;" xml:space="preserve">
<style type="text/css">
	.st0{fill:url(#SVGID_1_);}
</style>
<g>
	<radialGradient id="SVGID_1_" cx="17" cy="4" r="18" fx="17" fy="12" gradientTransform="matrix(0.5882 0 0 0.5882 0 8.2353)" gradientUnits="userSpaceOnUse">
		<stop  offset="0" style="stop-color:#FFFFFF"/>
		<stop  offset="0.6669" style="stop-color:#FFFFFF"/>
		<stop  offset="0.7767" style="stop-color:#FFFFFF"/>
		<stop  offset="0.8436" style="stop-color:#FBFBFB"/>
		<stop  offset="0.9083" style="stop-color:#F0F0F1"/>
		<stop  offset="0.9718" style="stop-color:#DCDEDE"/>
		<stop  offset="1" style="stop-color:#D1D3D4"/>
	</radialGradient>
	<circle class="st0" cx="10" cy="10" r="10"/>
	<path d="M7.45,15.47c-0.45-0.44-0.48-1.04,0-1.57l3.74-3.9L7.46,6.1c-0.48-0.53-0.45-1.14,0-1.57c0.44-0.44,1.19-0.41,1.61,0
		c0.42,0.41,4.49,4.68,4.49,4.68c0.22,0.22,0.34,0.5,0.34,0.78s-0.11,0.57-0.34,0.79c0,0-4.07,4.28-4.49,4.68
		C8.65,15.87,7.9,15.91,7.45,15.47z"/>
</g>
</svg>
