<?xml version="1.0" encoding="utf-8"?>
<svg viewBox="0 0 16 16" width="16" height="16" xmlns="http://www.w3.org/2000/svg">
  <path d="M 8 16 C 3.582 16 0 12.418 0 8 C 0 3.582 3.582 0 8 0 C 12.418 0 16 3.582 16 8 C 16 12.418 12.418 16 8 16 Z M 11.668 5.667 C 11.818 5.517 11.818 5.273 11.668 5.122 L 10.851 4.306 C 10.701 4.156 10.457 4.156 10.306 4.306 L 7.992 6.62 L 5.678 4.306 C 5.527 4.156 5.283 4.156 5.133 4.306 L 4.316 5.122 C 4.166 5.273 4.166 5.517 4.316 5.667 L 6.631 7.982 L 4.316 10.296 C 4.166 10.446 4.166 10.69 4.316 10.841 L 5.133 11.658 C 5.283 11.808 5.527 11.808 5.678 11.658 L 7.992 9.343 L 10.306 11.658 C 10.457 11.808 10.701 11.808 10.851 11.658 L 11.668 10.841 C 11.818 10.69 11.818 10.446 11.668 10.296 L 9.353 7.982 L 11.668 5.667 Z" style="fill: rgb(42, 124, 184);" transform="matrix(1, 0, 0, 1, -5.684341886080802e-14, 0)"/>
</svg>