<?xml version="1.0" encoding="utf-8"?>
<svg viewBox="0 0 27 32" width="27" height="32" xmlns="http://www.w3.org/2000/svg">
  <g id="BIOGRAPHY" stroke="none" stroke-width="1" fill="none" fill-rule="evenodd" style="" transform="matrix(1.0006, 0, 0, 1.018209, 0, -0.000738)">
    <g id="Biography---Largest-Mobile---641" transform="translate(-217.000000, -553.000000)">
      <g id="rolodex" transform="translate(19.000000, 273.000000)">
        <g id="file" transform="translate(198.000000, 280.000000)">
          <g id="Group-3">
            <mask id="mask-2" fill="white">
              <polygon points="0.02 0.041 26.946 0.041 26.946 31.387 0.02 31.387"/>
            </mask>
            <g id="Clip-2"/>
            <path d="M1.1073375,31.3871625 L25.8386625,31.3871625 C26.459325,31.3871625 26.946,30.9018375 26.946,30.281175 L26.946,1.1478375 C26.946,0.5268375 26.459325,0.0405 25.8386625,0.0405 L7.290675,0.0405 C7.2086625,0.0405 7.1006625,0.0405 7.0203375,0.066825 C6.9926625,0.066825 6.9663375,0.0945 6.9663375,0.0945 C6.884325,0.120825 6.830325,0.1485 6.75,0.174825 C6.723675,0.2025 6.696,0.2025 6.669675,0.2291625 C6.588,0.2831625 6.5073375,0.3371625 6.4533375,0.4188375 L0.2703375,7.7081625 C0.1886625,7.7898375 0.134325,7.8978375 0.080325,8.006175 C0.054,8.0325 0.054,8.0865 0.054,8.114175 C0.026325,8.1945 0.026325,8.274825 0,8.3568375 L0,30.2535 C0,30.9018375 0.513,31.3871625 1.1073375,31.3871625 Z M6.183,4.170825 L6.183,7.3575 L3.483,7.3575 L6.183,4.170825 Z M2.2136625,9.5445 L7.290675,9.5445 C7.9113375,9.5445 8.3966625,9.0581625 8.3966625,8.4371625 L8.3966625,2.2541625 L24.7323375,2.2541625 L24.7323375,29.1735 L2.2136625,29.1735 L2.2136625,9.5445 Z" id="Fill-1" fill="#2B7BBA" mask="url(#mask-2)"/>
          </g>
          <path d="M21.438,11.9478375 L5.508,11.9478375 C4.887,11.9478375 4.4006625,12.4331625 4.4006625,13.0541625 C4.4006625,13.674825 4.887,14.1615 5.508,14.1615 L21.438,14.1615 C22.0586625,14.1615 22.5453375,13.674825 22.5453375,13.0541625 C22.5453375,12.4331625 22.0586625,11.9478375 21.438,11.9478375 Z" id="Fill-4" fill="#2B7BBA"/>
          <path d="M21.438,17.2938375 L5.508,17.2938375 C4.887,17.2938375 4.4006625,17.7791625 4.4006625,18.399825 C4.4006625,19.020825 4.887,19.5075 5.508,19.5075 L21.438,19.5075 C22.0586625,19.5075 22.5453375,19.020825 22.5453375,18.399825 C22.5453375,17.8068375 22.0586625,17.2938375 21.438,17.2938375 Z" id="Fill-5" fill="#2B7BBA"/>
        </g>
      </g>
    </g>
  </g>
</svg>