<?xml version="1.0" encoding="utf-8"?>
<svg viewBox="-0.5 -0.5 27.719999313354492 18" width="27.719999313354492" height="18" xmlns="http://www.w3.org/2000/svg">
  <path d="M 8.502 7.285 L 8.502 10.2 L 13.327 10.2 C 13.133 11.451 11.87 13.868 8.505 13.868 C 5.605 13.868 3.236 11.463 3.236 8.498 C 3.236 5.535 5.6 3.129 8.502 3.129 C 10.154 3.129 11.26 3.834 11.891 4.443 L 14.197 2.22 C 12.717 0.836 10.797 0 8.505 0 C 3.8 -0.002 0 3.806 0 8.498 C 0 13.192 3.801 17 8.502 17 C 13.409 17 16.665 13.55 16.665 8.692 C 16.665 8.135 16.603 7.708 16.53 7.285 L 8.502 7.285 Z M 26.72 7.285 L 24.29 7.285 L 24.29 4.855 L 21.862 4.855 L 21.862 7.285 L 19.433 7.285 L 19.433 9.713 L 21.863 9.713 L 21.863 12.143 L 24.301 12.143 L 24.301 9.713 L 26.72 9.713 Z" style="fill: rgb(255, 255, 255);" transform="matrix(1, 0, 0, 1, 0, 0)"/>
</svg>