<?xml version="1.0" encoding="utf-8"?>
<svg version="1.1" id="google-plus-old-white" xmlns="http://www.w3.org/2000/svg" xmlns:xlink="http://www.w3.org/1999/xlink" x="0px" y="0px"
	 viewBox="0 0 19 18" style="enable-background:new 0 0 19 18;" xml:space="preserve">
<style type="text/css">
	.st0{fill:#FFFFFF;}
</style>
<path class="st0" d="M1.29,4.49c0,1.53,0.51,2.63,1.52,3.28C3.63,8.3,4.58,8.38,5.08,8.38c0.12,0,0.22-0.01,0.29-0.01
	c0,0-0.16,1.03,0.6,2.04H5.93c-1.32,0-5.62,0.28-5.62,3.81c0,3.6,3.95,3.78,4.74,3.78c0.06,0,0.1,0,0.1,0c0.01,0,0.06,0,0.16,0
	c0.51,0,1.82-0.06,3.04-0.66c1.58-0.77,2.39-2.11,2.39-3.97c0-1.8-1.22-2.88-2.12-3.66C8.08,9.23,7.61,8.81,7.61,8.41
	C7.61,8,7.96,7.69,8.39,7.3c0.7-0.63,1.37-1.53,1.37-3.22c0-1.49-0.19-2.49-1.39-3.13C8.5,0.89,8.94,0.85,9.16,0.82
	c0.65-0.09,1.59-0.19,1.59-0.72V0h-4.7C6,0,1.29,0.18,1.29,4.49z M8.88,13.71c0.09,1.44-1.14,2.5-2.99,2.63
	c-1.88,0.14-3.42-0.71-3.51-2.14c-0.04-0.69,0.26-1.37,0.85-1.91c0.6-0.55,1.43-0.88,2.33-0.95c0.11-0.01,0.21-0.01,0.32-0.01
	C7.62,11.33,8.79,12.35,8.88,13.71z M7.65,3.5C8.11,5.13,7.42,6.82,6.3,7.14C6.18,7.17,6.05,7.19,5.91,7.19
	c-1.02,0-2.02-1.03-2.4-2.45C3.31,3.95,3.32,3.25,3.56,2.58c0.23-0.66,0.66-1.1,1.19-1.25C4.88,1.3,5.01,1.28,5.15,1.28
	C6.37,1.28,7.16,1.79,7.65,3.5z M15.62,6.96V3.89h-2.05v3.07H10.5V9h3.07v3.07h2.05V9h3.07V6.96H15.62z"/>
</svg>
