<?xml version="1.0" encoding="utf-8"?>
<svg viewBox="0 0 24 24" width="22" height="22" xmlns="http://www.w3.org/2000/svg">
  <path d="M 20.367 13.148 C 20.366 13.498 20.007 13.926 19.656 13.923 L 14.385 7.941 L 12.402 9.608 C 12.182 9.689 11.92 9.691 11.699 9.615 L 9.577 7.941 L 4.267 13.998 C 3.917 14.002 3.562 13.573 3.558 13.223 L 8.657 7.371 L 3.031 2.982 C 3.002 2.633 3.392 2.241 3.741 2.207 L 12.037 8.324 L 19.919 2.245 C 20.269 2.275 20.656 2.671 20.63 3.02 L 15.192 7.409 L 20.367 13.148 Z M 2.763 1 C 1.789 1 1 1.859 1 2.915 L 1 14.452 C 1 15.51 1.783 16.367 2.763 16.367 L 5.745 16.125 L 2.781 22.216 C 2.629 23.388 3.283 22.896 3.621 22.904 L 14.811 16.367 L 21.236 16.367 C 22.21 16.367 23 15.508 23 14.452 L 23 2.915 C 23 1.857 22.217 1 21.236 1 L 2.763 1 Z" style="fill: rgb(255, 255, 255);"/>
</svg>