<?xml version="1.0" encoding="utf-8"?>
<svg version="1.1" id="Layer_1" x="0px" y="0px" viewBox="0 0 26 26" style="enable-background:new 0 0 25 25;" xmlns="http://www.w3.org/2000/svg">
  <style type="text/css">
	.st0{fill:#FFFFFF;}
</style>
  <path class="st0" d="M 12.205 0.524 C 5.995 0.914 0.915 5.994 0.525 12.204 C 0.055 19.764 6.245 25.944 13.805 25.484 C 20.015 25.104 25.095 20.014 25.475 13.814 C 25.945 6.244 19.765 0.064 12.205 0.524 Z M 14.955 22.524 L 11.055 22.524 L 11.055 10.634 L 14.955 10.634 L 14.955 22.524 Z M 15.585 6.944 C 15.585 8.374 14.425 9.524 13.005 9.524 C 11.585 9.524 10.425 8.364 10.425 6.944 L 10.425 6.824 C 10.425 5.394 11.585 4.244 13.005 4.244 C 14.425 4.244 15.585 5.404 15.585 6.824 L 15.585 6.944 Z"/>
</svg>