<?xml version="1.0" encoding="utf-8"?>
<!-- Generator: Adobe Illustrator 18.1.1, SVG Export Plug-In . SVG Version: 6.00 Build 0)  -->
<svg version="1.1" id="Layer_2" xmlns="http://www.w3.org/2000/svg" xmlns:xlink="http://www.w3.org/1999/xlink" x="0px" y="0px"
	 viewBox="0 0 85 85" enable-background="new 0 0 85 85" xml:space="preserve">
<path fill="#319FBE" d="M42.5,85C19.1,85,0,65.9,0,42.5S19.1,0,42.5,0S85,19.1,85,42.5S65.9,85,42.5,85z M42.5,5
	C21.8,5,5,21.8,5,42.5S21.8,80,42.5,80S80,63.2,80,42.5S63.2,5,42.5,5z"/>
<path fill="#319FBE" d="M36.6,19.2h11.7v8.2l-2,23.8h-7.8l-1.9-23.8V19.2z M38.3,64.3c-1.1-1.1-1.7-2.5-1.7-4.1c0-1.6,0.6-3,1.7-4.1
	c1.1-1.1,2.5-1.7,4.1-1.7c1.6,0,3,0.6,4.1,1.7s1.7,2.5,1.7,4.1c0,1.6-0.6,3-1.7,4.1s-2.5,1.7-4.1,1.7C40.8,65.9,39.5,65.4,38.3,64.3
	z"/>
</svg>
