<?xml version="1.0" encoding="utf-8"?>
<svg viewBox="-12 8.9399995803833 15.850000381469727 20.139999389648438" width="15.850000381469727" height="20.139999389648438" style="enable-background:new -11.5 9.09 15 20;" xmlns="http://www.w3.org/2000/svg">
  <path style="fill:#2b7bba;" d="M-3.65,9.44c-5.15,0-7.85,3.68-7.85,6.86c0,1.84,0.74,3.55,2.21,4.17c0.25,0.12,0.49,0,0.49-0.25&#10;&#9;s0.12-0.74,0.25-0.86c0.12-0.25,0-0.37-0.12-0.61c-0.49-0.49-0.74-1.23-0.74-2.08c0-2.7,2.08-5.27,5.39-5.27&#10;&#9;c2.94,0,4.54,1.84,4.54,4.17c0,3.19-1.35,5.76-3.43,5.76c-1.1,0-1.96-0.98-1.72-2.08c0.37-1.35,0.98-2.82,0.98-3.92&#10;&#9;c0-0.86-0.49-1.59-1.47-1.59c-1.23,0-2.08,1.23-2.08,2.82c0,0.98,0.37,1.72,0.37,1.72s-1.23,5.03-1.35,6.01&#10;&#9;c-0.37,1.72-0.12,3.92,0,4.17c0,0.12,0.12,0.12,0.25,0.12c0.12-0.12,1.47-1.84,1.96-3.55c0.12-0.49,0.74-2.94,0.74-2.94&#10;&#9;c0.37,0.74,1.47,1.35,2.7,1.35c3.55,0,5.88-3.19,5.88-7.48C3.21,12.38,0.51,9.44-3.65,9.44z" transform="matrix(1, 0, 0, 1, 0, 0)"/>
</svg>