<?xml version="1.0" encoding="utf-8"?>
<svg version="1.1" id="pinterest-white" xmlns="http://www.w3.org/2000/svg" xmlns:xlink="http://www.w3.org/1999/xlink" x="0px" y="0px"
	 viewBox="0 0 14 18" style="enable-background:new 0 0 14 18;" xml:space="preserve">
<style type="text/css">
	.st0{fill:#FFFFFF;}
</style>
<path class="st0" d="M7.38,0.39c-4.63,0-7.06,3.31-7.06,6.17c0,1.66,0.67,3.19,1.99,3.75c0.23,0.11,0.44,0,0.44-0.22
	c0-0.23,0.11-0.67,0.22-0.77c0.11-0.22,0-0.33-0.11-0.55C2.42,8.32,2.2,7.66,2.2,6.89c0-2.43,1.87-4.74,4.85-4.74
	c2.65,0,4.09,1.66,4.09,3.75c0,2.87-1.22,5.18-3.09,5.18c-0.99,0-1.76-0.88-1.55-1.87C6.83,8,7.38,6.68,7.38,5.69
	c0-0.77-0.44-1.43-1.32-1.43c-1.11,0-1.87,1.11-1.87,2.54c0,0.88,0.33,1.55,0.33,1.55s-1.11,4.53-1.22,5.41
	c-0.33,1.55-0.11,3.53,0,3.75c0,0.11,0.11,0.11,0.22,0.11c0.11-0.11,1.32-1.66,1.76-3.19c0.11-0.44,0.67-2.65,0.67-2.65
	c0.33,0.67,1.32,1.22,2.43,1.22c3.19,0,5.29-2.87,5.29-6.73C13.56,3.03,11.13,0.39,7.38,0.39z"/>
</svg>
