<?xml version="1.0" encoding="utf-8"?>
<svg version="1.1" id="search" x="0px" y="0px" viewBox="0 0 17 17" style="enable-background:new 0 0 16 16;" xmlns="http://www.w3.org/2000/svg">
  <style type="text/css">
	.st0{fill:#FFFFFF;}
</style>
  <path class="st0" d="M 16.06 16.06 C 15.47 16.65 14.52 16.65 13.94 16.06 L 11.29 13.41 C 10.2 14.11 8.91 14.53 7.52 14.53 C 3.64 14.52 0.5 11.39 0.5 7.51 C 0.5 3.63 3.64 0.5 7.51 0.5 C 11.38 0.5 14.52 3.64 14.52 7.51 C 14.52 8.9 14.1 10.19 13.4 11.28 L 16.05 13.93 C 16.65 14.52 16.65 15.47 16.06 16.06 Z M 7.51 2.5 C 4.75 2.5 2.5 4.74 2.5 7.51 C 2.5 10.28 4.74 12.52 7.51 12.52 C 10.28 12.52 12.52 10.28 12.52 7.51 C 12.52 4.74 10.28 2.5 7.51 2.5 Z"/>
</svg>