<?xml version="1.0" encoding="utf-8"?>
<svg version="1.1" id="twitter-white" xmlns="http://www.w3.org/2000/svg" xmlns:xlink="http://www.w3.org/1999/xlink" x="0px" y="0px"
	 viewBox="0 0 19 16" style="enable-background:new 0 0 19 16;" xml:space="preserve">
<path style="fill:#FFFFFF;" d="M18.91,2.15c-0.71,0.29-1.41,0.53-2.24,0.59c0.82-0.47,1.41-1.24,1.71-2.12
	c-0.76,0.41-1.59,0.76-2.47,0.94c-0.71-0.76-1.71-1.24-2.82-1.24c-2.12,0-3.88,1.71-3.88,3.88c0,0.29,0.06,0.59,0.12,0.88
	c-3.24-0.18-6.06-1.71-7.94-4C1.03,1.68,0.85,2.32,0.85,3.03c0,1.35,0.71,2.53,1.71,3.24c-0.65,0-1.24-0.18-1.76-0.47v0.06
	c0,1.88,1.35,3.41,3.12,3.76c-0.35,0.06-0.65,0.12-1,0.12c-0.24,0-0.47,0-0.71-0.06c0.47,1.53,1.94,2.65,3.59,2.71
	c-1.29,1.06-3,1.65-4.76,1.65c-0.29,0-0.59,0-0.94-0.06c1.71,1.12,3.76,1.71,5.94,1.71c7.12,0,11-5.88,11-11c0-0.18,0-0.35,0-0.47
	C17.79,3.62,18.44,2.91,18.91,2.15L18.91,2.15z"/>
</svg>
