<?xml version="1.0" encoding="utf-8"?>
<!-- Generator: Adobe Illustrator 19.2.0, SVG Export Plug-In . SVG Version: 6.00 Build 0)  -->
<svg version="1.1" id="Layer_1" xmlns="http://www.w3.org/2000/svg" xmlns:xlink="http://www.w3.org/1999/xlink" x="0px" y="0px"
	 viewBox="0 0 462 64" style="enable-background:new 0 0 462 64;" xml:space="preserve">
<style type="text/css">
	.st0{fill:#606060;}
	.st1{fill:#BB0E3D;}
	.st2{fill:#FFFFFF;}
</style>
<g>
	<g>
		<g>
			<path class="st0" d="M76,32L61,5H6.8C3.6,5,1,7.6,1,10.8v42.4C1,56.4,3.6,59,6.8,59H61L76,32z"/>
			<path class="st1" d="M74.5,7.8c-1.1-1.7-3-2.8-5-2.8H65l15.2,27L65,59h4.5c2.1,0,4-1.1,5-2.8L88,32L74.5,7.8z"/>
		</g>
		<g>
			<rect x="33" y="20" class="st2" width="4" height="24"/>
			<polygon class="st2" points="25,20 25,37.6 14,20 10,20 10,44 14,44 14,26.4 25,44 29,44 29,20 			"/>
			<polygon class="st2" points="56,20 56,30 45,30 45,20 41,20 41,44 45,44 45,34 56,34 56,44 60,44 60,20 			"/>
		</g>
	</g>
	<g>
		<g>
			<path class="st1" d="M107.2,7.8v11.8h-3.3V7.8h-4.2V5h11.6v2.8H107.2z"/>
			<path class="st1" d="M122.9,5h3.3v14.7h-3.3v-5.8H117v5.8h-3.3V5h3.3v6.1h5.8V5z"/>
			<path class="st1" d="M140.3,5v2.9H133v3h6.6v2.8H133v3h7.5v2.9h-10.8V5H140.3z"/>
			<path class="st1" d="M155.8,16.8c1.6,0,2.9-0.6,3.9-1.9l2.1,2.2c-1.7,1.9-3.6,2.8-5.9,2.8s-4.1-0.7-5.6-2.1
				c-1.5-1.4-2.2-3.2-2.2-5.4c0-2.2,0.7-4,2.2-5.4s3.3-2.2,5.5-2.2c2.4,0,4.4,0.9,6,2.8l-2,2.3c-1-1.3-2.3-1.9-3.9-1.9
				c-1.2,0-2.3,0.4-3.2,1.2c-0.9,0.8-1.3,1.9-1.3,3.3c0,1.4,0.4,2.5,1.2,3.3S154.6,16.8,155.8,16.8z"/>
			<path class="st1" d="M174.7,19.7l-1.4-3.2h-6.2l-1.4,3.2h-3.5L168.7,5h3.2l6.3,14.7H174.7z M170.3,9.4l-1.8,4.3h3.7L170.3,9.4z"
				/>
			<path class="st1" d="M190.2,5h3.3v14.7h-3.3l-7-9.2v9.2h-3.3V5h3.1l7.2,9.5V5z"/>
			<path class="st1" d="M203.8,16.8c1.6,0,2.9-0.6,3.9-1.9l2.1,2.2c-1.7,1.9-3.6,2.8-5.9,2.8s-4.1-0.7-5.6-2.1
				c-1.5-1.4-2.2-3.2-2.2-5.4c0-2.2,0.7-4,2.2-5.4s3.3-2.2,5.5-2.2c2.4,0,4.4,0.9,6,2.8l-2,2.3c-1-1.3-2.3-1.9-3.9-1.9
				c-1.2,0-2.3,0.4-3.2,1.2c-0.9,0.8-1.3,1.9-1.3,3.3c0,1.4,0.4,2.5,1.2,3.3S202.7,16.8,203.8,16.8z"/>
			<path class="st1" d="M223,5v2.9h-7.3v3h6.6v2.8h-6.6v3h7.5v2.9h-10.8V5H223z"/>
			<path class="st1" d="M238.1,9.9c0,2.4-0.9,3.9-2.8,4.6l3.7,5.2h-4l-3.3-4.7h-2.3v4.7h-3.3V5h5.6c2.3,0,3.9,0.4,4.9,1.2
				C237.6,6.9,238.1,8.2,238.1,9.9z M234.2,11.6c0.4-0.4,0.6-0.9,0.6-1.7c0-0.8-0.2-1.3-0.6-1.6s-1.2-0.4-2.2-0.4h-2.5v4.3h2.4
				C233,12.2,233.7,12,234.2,11.6z"/>
			<path class="st1" d="M256.5,12.2h3.3v5.2c-1.5,1.6-3.5,2.4-6,2.4c-2.2,0-4-0.7-5.4-2.1c-1.5-1.4-2.2-3.2-2.2-5.4
				c0-2.2,0.7-4,2.2-5.4s3.3-2.2,5.4-2.2s3.9,0.7,5.5,2.1l-1.7,2.5c-0.7-0.6-1.3-1-1.8-1.2c-0.6-0.2-1.2-0.3-1.8-0.3
				c-1.2,0-2.3,0.4-3.1,1.3c-0.9,0.8-1.3,2-1.3,3.4s0.4,2.5,1.2,3.3c0.8,0.8,1.8,1.2,2.9,1.2c1.1,0,2.1-0.2,2.8-0.7L256.5,12.2
				L256.5,12.2z"/>
			<path class="st1" d="M273.3,5v2.9H266v3h6.6v2.8H266v3h7.5v2.9h-10.8V5H273.3z"/>
			<path class="st1" d="M286.8,5h3.3v14.7h-3.3l-7-9.2v9.2h-3.3V5h3.1l7.2,9.5V5z"/>
			<path class="st1" d="M306,17.7c-1.5,1.4-3.3,2.2-5.5,2.2s-4-0.7-5.5-2.2s-2.2-3.3-2.2-5.4c0-2.2,0.7-4,2.2-5.4
				c1.5-1.4,3.3-2.2,5.5-2.2s4,0.7,5.5,2.2c1.5,1.4,2.2,3.3,2.2,5.4C308.2,14.4,307.5,16.2,306,17.7z M304.9,12.3
				c0-1.3-0.4-2.4-1.3-3.4c-0.8-0.9-1.9-1.4-3.1-1.4c-1.2,0-2.3,0.5-3.1,1.4c-0.8,0.9-1.3,2-1.3,3.4c0,1.3,0.4,2.4,1.3,3.3
				c0.8,0.9,1.9,1.4,3.1,1.4s2.3-0.5,3.1-1.4C304.5,14.7,304.9,13.6,304.9,12.3z"/>
			<path class="st1" d="M324.1,10.4l-4,8h-2l-3.9-8v9.2H311V5h4.4l3.8,8.1L323,5h4.4v14.7h-3.3L324.1,10.4L324.1,10.4z"/>
			<path class="st1" d="M341.6,5v2.9h-7.3v3h6.6v2.8h-6.6v3h7.5v2.9H331V5H341.6z"/>
			<path class="st1" d="M360.8,19.7l-1.4-3.2h-6.2l-1.4,3.2h-3.5L354.7,5h3.2l6.3,14.7H360.8z M356.3,9.4l-1.8,4.3h3.7L356.3,9.4z"
				/>
			<path class="st1" d="M371.1,7.8v11.8h-3.3V7.8h-4.2V5h11.6v2.8H371.1z"/>
			<path class="st1" d="M377.6,19.7V5h3.3v11.8h6.3v2.9H377.6z"/>
			<path class="st1" d="M400,19.7l-1.4-3.2h-6.2l-1.4,3.2h-3.5L394,5h3.2l6.3,14.7H400z M395.6,9.4l-1.8,4.3h3.7L395.6,9.4z"/>
			<path class="st1" d="M408.5,7.9c-0.3,0.3-0.5,0.6-0.5,1c0,0.4,0.2,0.8,0.6,1c0.4,0.3,1.3,0.5,2.7,0.9c1.4,0.3,2.5,0.9,3.2,1.5
				c0.8,0.7,1.2,1.7,1.2,3c0,1.3-0.5,2.4-1.5,3.2s-2.3,1.2-3.9,1.2c-2.3,0-4.4-0.9-6.3-2.6l2-2.4c1.6,1.4,3,2.1,4.4,2.1
				c0.6,0,1.1-0.1,1.4-0.4c0.3-0.3,0.5-0.6,0.5-1.1c0-0.4-0.2-0.8-0.5-1c-0.4-0.3-1.1-0.5-2.2-0.8c-1.7-0.4-3-0.9-3.7-1.6
				c-0.8-0.6-1.2-1.7-1.2-3.1c0-1.4,0.5-2.5,1.5-3.2s2.2-1.1,3.7-1.1c1,0,2,0.2,2.9,0.5c1,0.3,1.8,0.8,2.6,1.4L413.8,9
				c-1.3-1-2.6-1.4-3.9-1.4C409.3,7.5,408.9,7.7,408.5,7.9z"/>
		</g>
	</g>
	<g>
		<g>
			<path class="st0" d="M108.8,28.7h2.5v11.2h-2.5l-5.3-7v7H101V28.7h2.3l5.5,7.2V28.7z"/>
			<path class="st0" d="M121.2,39.9h-2.3v-1c-0.6,0.8-1.4,1.2-2.3,1.2s-1.7-0.3-2.3-0.8c-0.6-0.5-0.9-1.2-0.9-2.1s0.3-1.5,1-2
				c0.6-0.4,1.5-0.7,2.6-0.7h1.8v0c0-0.9-0.5-1.4-1.5-1.4c-0.4,0-0.9,0.1-1.3,0.2s-0.9,0.4-1.2,0.6l-1.1-1.6
				c1.1-0.8,2.4-1.2,3.9-1.2c1,0,1.9,0.3,2.6,0.8c0.7,0.5,1,1.3,1,2.5V39.9z M118.7,36.6v-0.4h-1.5c-1,0-1.4,0.3-1.4,0.9
				c0,0.3,0.1,0.5,0.3,0.7c0.2,0.2,0.6,0.2,1,0.2c0.4,0,0.8-0.1,1.1-0.4C118.6,37.4,118.7,37,118.7,36.6z"/>
			<path class="st0" d="M126.1,33v3.9c0,0.3,0.1,0.6,0.3,0.8s0.4,0.3,0.6,0.3c0.4,0,0.8-0.2,1.1-0.6L129,39c-0.7,0.7-1.5,1-2.4,1
				c-0.8,0-1.5-0.3-2.1-0.8c-0.6-0.5-0.9-1.3-0.9-2.2v-4h-1v-1.7h1v-2.6h2.4v2.6h2.1V33L126.1,33L126.1,33z"/>
			<path class="st0" d="M130.5,30.2c-0.3-0.3-0.4-0.6-0.4-1s0.1-0.7,0.4-1c0.3-0.3,0.6-0.4,1-0.4s0.7,0.1,1,0.4
				c0.3,0.3,0.4,0.6,0.4,1s-0.1,0.7-0.4,1c-0.3,0.3-0.6,0.4-1,0.4S130.8,30.4,130.5,30.2z M132.7,39.9h-2.4v-8.6h2.4V39.9z"/>
			<path class="st0" d="M143.6,35.6c0,1.2-0.4,2.3-1.3,3.2c-0.9,0.9-1.9,1.3-3.3,1.3s-2.4-0.4-3.3-1.3s-1.3-1.9-1.3-3.2
				s0.4-2.3,1.3-3.2c0.9-0.9,1.9-1.3,3.3-1.3s2.4,0.4,3.3,1.3C143.1,33.3,143.6,34.3,143.6,35.6z M136.9,35.6c0,0.7,0.2,1.3,0.6,1.7
				c0.4,0.4,0.9,0.7,1.5,0.7s1.1-0.2,1.5-0.7s0.6-1,0.6-1.7s-0.2-1.3-0.6-1.7s-0.9-0.7-1.5-0.7s-1.1,0.2-1.5,0.7
				C137.1,34.3,136.9,34.9,136.9,35.6z"/>
			<path class="st0" d="M147.7,35.1v4.8h-2.4v-8.6h2.4v1c0.7-0.7,1.5-1.1,2.4-1.1s1.7,0.3,2.3,1c0.6,0.6,0.9,1.5,0.9,2.6v5.2H151V35
				c0-1.3-0.5-2-1.5-2c-0.5,0-0.9,0.2-1.3,0.5S147.7,34.4,147.7,35.1z"/>
			<path class="st0" d="M162.9,39.9h-2.3v-1c-0.6,0.8-1.4,1.2-2.3,1.2s-1.7-0.3-2.3-0.8c-0.6-0.5-0.9-1.2-0.9-2.1s0.3-1.5,1-2
				c0.6-0.4,1.5-0.7,2.6-0.7h1.8v0c0-0.9-0.5-1.4-1.5-1.4c-0.4,0-0.9,0.1-1.3,0.2s-0.9,0.4-1.2,0.6l-1.1-1.6
				c1.1-0.8,2.4-1.2,3.9-1.2c1,0,1.9,0.3,2.6,0.8c0.7,0.5,1,1.3,1,2.5V39.9z M160.5,36.6v-0.4H159c-1,0-1.4,0.3-1.4,0.9
				c0,0.3,0.1,0.5,0.3,0.7c0.2,0.2,0.6,0.2,1,0.2c0.4,0,0.8-0.1,1.1-0.4C160.3,37.4,160.5,37,160.5,36.6z"/>
			<path class="st0" d="M167.5,39.9h-2.4V28h2.4V39.9z"/>
			<path class="st0" d="M179.3,37.7c1.2,0,2.2-0.5,3-1.5l1.6,1.6c-1.3,1.4-2.8,2.1-4.5,2.1s-3.1-0.5-4.3-1.6s-1.7-2.5-1.7-4.1
				c0-1.7,0.6-3,1.7-4.2c1.1-1.1,2.5-1.7,4.2-1.7c1.8,0,3.4,0.7,4.6,2.1l-1.6,1.8c-0.8-1-1.8-1.5-2.9-1.5c-0.9,0-1.7,0.3-2.4,0.9
				s-1,1.4-1,2.5s0.3,1.9,0.9,2.5C177.7,37.3,178.4,37.7,179.3,37.7z"/>
			<path class="st0" d="M192.9,39.9h-2.3v-1c-0.6,0.8-1.4,1.2-2.3,1.2s-1.7-0.3-2.3-0.8c-0.6-0.5-0.9-1.2-0.9-2.1s0.3-1.5,1-2
				c0.6-0.4,1.5-0.7,2.6-0.7h1.8v0c0-0.9-0.5-1.4-1.5-1.4c-0.4,0-0.9,0.1-1.3,0.2s-0.9,0.4-1.2,0.6l-1.1-1.6
				c1.1-0.8,2.4-1.2,3.9-1.2c1,0,1.9,0.3,2.6,0.8c0.7,0.5,1,1.3,1,2.5V39.9z M190.5,36.6v-0.4H189c-1,0-1.4,0.3-1.4,0.9
				c0,0.3,0.1,0.5,0.3,0.7c0.2,0.2,0.6,0.2,1,0.2c0.4,0,0.8-0.1,1.1-0.4C190.3,37.4,190.5,37,190.5,36.6z"/>
			<path class="st0" d="M197.5,35.1v4.8h-2.4v-8.6h2.4v1c0.7-0.7,1.5-1.1,2.4-1.1s1.7,0.3,2.3,1c0.6,0.6,0.9,1.5,0.9,2.6v5.2h-2.4
				V35c0-1.3-0.5-2-1.5-2c-0.5,0-0.9,0.2-1.3,0.5S197.5,34.4,197.5,35.1z"/>
			<path class="st0" d="M209.4,37.9c0.8,0,1.5-0.4,2.2-1.2l1.4,1.6c-1.1,1.2-2.3,1.7-3.6,1.7c-1.3,0-2.4-0.4-3.3-1.2
				s-1.3-1.9-1.3-3.2s0.4-2.4,1.4-3.2c0.9-0.8,2-1.2,3.2-1.2c0.6,0,1.2,0.1,1.9,0.4c0.6,0.3,1.2,0.6,1.7,1.1l-1.2,1.6
				c-0.3-0.3-0.6-0.6-1-0.8c-0.4-0.2-0.8-0.3-1.2-0.3c-0.6,0-1.2,0.2-1.6,0.6c-0.5,0.4-0.7,1-0.7,1.7c0,0.7,0.2,1.3,0.7,1.7
				C208.3,37.7,208.8,37.9,209.4,37.9z"/>
			<path class="st0" d="M222.1,38.6c-1,0.9-2.1,1.4-3.4,1.4s-2.4-0.4-3.2-1.2c-0.9-0.8-1.3-1.9-1.3-3.2c0-1.4,0.4-2.4,1.3-3.2
				c0.9-0.8,1.9-1.2,3.1-1.2s2.2,0.4,3,1.1c0.8,0.7,1.2,1.7,1.2,2.9v1.3h-6.3c0.1,0.5,0.3,0.9,0.7,1.2c0.4,0.3,0.9,0.4,1.4,0.4
				c0.8,0,1.5-0.3,2.1-0.8L222.1,38.6z M219.8,33.5c-0.3-0.3-0.7-0.4-1.2-0.4s-0.9,0.1-1.3,0.4s-0.6,0.7-0.7,1.2h3.8
				C220.3,34.2,220.1,33.8,219.8,33.5z"/>
			<path class="st0" d="M229,33.4c-0.7,0-1.2,0.3-1.6,0.8c-0.4,0.5-0.5,1.2-0.5,2v3.7h-2.4v-8.6h2.4v1.1c0.3-0.4,0.7-0.7,1.2-0.9
				c0.5-0.2,0.9-0.4,1.4-0.4l0,2.3L229,33.4L229,33.4z"/>
			<path class="st0" d="M235.5,28.7h2.5v11.2h-2.5V28.7z"/>
			<path class="st0" d="M242.9,35.1v4.8h-2.4v-8.6h2.4v1c0.7-0.7,1.5-1.1,2.4-1.1s1.7,0.3,2.3,1s0.9,1.5,0.9,2.6v5.2h-2.4V35
				c0-1.3-0.5-2-1.5-2c-0.5,0-0.9,0.2-1.3,0.5S242.9,34.4,242.9,35.1z"/>
			<path class="st0" d="M257.2,37.2c0,0.8-0.3,1.5-0.9,2c-0.6,0.5-1.4,0.8-2.4,0.8c-0.6,0-1.3-0.1-2-0.3c-0.7-0.2-1.3-0.6-1.9-1
				l1.1-1.5c0.9,0.7,1.9,1,2.9,1c0.3,0,0.6-0.1,0.7-0.2s0.3-0.3,0.3-0.5c0-0.2-0.1-0.4-0.4-0.6s-0.6-0.3-1.1-0.5s-0.8-0.3-1.1-0.4
				c-0.3-0.1-0.5-0.3-0.9-0.5c-0.7-0.4-1-1-1-1.8c0-0.8,0.3-1.4,1-1.9c0.6-0.5,1.5-0.8,2.5-0.8c1,0,2,0.3,3,1l-0.9,1.6
				c-0.7-0.5-1.5-0.8-2.2-0.8c-0.7,0-1.1,0.2-1.1,0.6c0,0.2,0.1,0.4,0.4,0.5s0.6,0.3,1.2,0.4c0.5,0.2,0.9,0.3,1.2,0.4
				s0.5,0.2,0.8,0.4C256.9,35.7,257.2,36.3,257.2,37.2z"/>
			<path class="st0" d="M261.8,33v3.9c0,0.3,0.1,0.6,0.3,0.8s0.4,0.3,0.6,0.3c0.4,0,0.8-0.2,1.1-0.6l0.9,1.7c-0.7,0.7-1.5,1-2.4,1
				c-0.8,0-1.5-0.3-2.1-0.8c-0.6-0.5-0.9-1.3-0.9-2.2v-4h-1v-1.7h1v-2.6h2.4v2.6h2.1V33L261.8,33L261.8,33z"/>
			<path class="st0" d="M266.2,30.2c-0.3-0.3-0.4-0.6-0.4-1s0.1-0.7,0.4-1c0.3-0.3,0.6-0.4,1-0.4s0.7,0.1,1,0.4
				c0.3,0.3,0.4,0.6,0.4,1s-0.1,0.7-0.4,1c-0.3,0.3-0.6,0.4-1,0.4S266.5,30.4,266.2,30.2z M268.4,39.9H266v-8.6h2.4V39.9z"/>
			<path class="st0" d="M273.5,33v3.9c0,0.3,0.1,0.6,0.3,0.8s0.4,0.3,0.6,0.3c0.4,0,0.8-0.2,1.1-0.6l0.9,1.7c-0.7,0.7-1.5,1-2.4,1
				c-0.8,0-1.5-0.3-2.1-0.8c-0.6-0.5-0.9-1.3-0.9-2.2v-4h-1v-1.7h1v-2.6h2.4v2.6h2.1V33L273.5,33L273.5,33z"/>
			<path class="st0" d="M283.3,35.9v-4.6h2.4v8.6h-2.4v-1.1c-0.6,0.8-1.4,1.3-2.3,1.3s-1.7-0.3-2.4-0.9s-1-1.5-1-2.6v-5.2h2.4v4.7
				c0,1.3,0.5,2,1.5,2c0.5,0,0.9-0.2,1.2-0.5S283.3,36.6,283.3,35.9z"/>
			<path class="st0" d="M290.8,33v3.9c0,0.3,0.1,0.6,0.3,0.8s0.4,0.3,0.6,0.3c0.4,0,0.8-0.2,1.1-0.6l0.9,1.7c-0.7,0.7-1.5,1-2.4,1
				c-0.8,0-1.5-0.3-2.1-0.8c-0.6-0.5-0.9-1.3-0.9-2.2v-4h-1v-1.7h1v-2.6h2.4v2.6h2.1V33L290.8,33L290.8,33z"/>
			<path class="st0" d="M302.4,38.6c-1,0.9-2.1,1.4-3.4,1.4s-2.4-0.4-3.2-1.2c-0.9-0.8-1.3-1.9-1.3-3.2c0-1.4,0.4-2.4,1.3-3.2
				c0.9-0.8,1.9-1.2,3.1-1.2s2.2,0.4,3,1.1c0.8,0.7,1.2,1.7,1.2,2.9v1.3h-6.3c0.1,0.5,0.3,0.9,0.7,1.2c0.4,0.3,0.9,0.4,1.4,0.4
				c0.8,0,1.5-0.3,2.1-0.8L302.4,38.6z M300.1,33.5c-0.3-0.3-0.7-0.4-1.2-0.4s-0.9,0.1-1.3,0.4s-0.6,0.7-0.7,1.2h3.8
				C300.7,34.2,300.5,33.8,300.1,33.5z"/>
			<path class="st0" d="M108.8,47.8h2.5V59h-2.5l-5.3-7v7H101V47.8h2.3l5.5,7.2V47.8z"/>
			<path class="st0" d="M121.2,59h-2.3v-1c-0.6,0.8-1.4,1.2-2.3,1.2s-1.7-0.3-2.3-0.8c-0.6-0.5-0.9-1.2-0.9-2.1s0.3-1.5,1-2
				c0.6-0.4,1.5-0.7,2.6-0.7h1.8v0c0-0.9-0.5-1.4-1.5-1.4c-0.4,0-0.9,0.1-1.3,0.2s-0.9,0.4-1.2,0.6l-1.1-1.6
				c1.1-0.8,2.4-1.2,3.9-1.2c1,0,1.9,0.3,2.6,0.8c0.7,0.5,1,1.3,1,2.5V59z M118.7,55.7v-0.4h-1.5c-1,0-1.4,0.3-1.4,0.9
				c0,0.3,0.1,0.5,0.3,0.7c0.2,0.2,0.6,0.2,1,0.2c0.4,0,0.8-0.1,1.1-0.4C118.6,56.5,118.7,56.2,118.7,55.7z"/>
			<path class="st0" d="M126.1,52.1V56c0,0.3,0.1,0.6,0.3,0.8s0.4,0.3,0.6,0.3c0.4,0,0.8-0.2,1.1-0.6l0.9,1.7c-0.7,0.7-1.5,1-2.4,1
				c-0.8,0-1.5-0.3-2.1-0.8c-0.6-0.5-0.9-1.3-0.9-2.2v-4h-1v-1.7h1v-2.6h2.4v2.6h2.1v1.7H126.1z"/>
			<path class="st0" d="M130.5,49.3c-0.3-0.3-0.4-0.6-0.4-1s0.1-0.7,0.4-1c0.3-0.3,0.6-0.4,1-0.4s0.7,0.1,1,0.4
				c0.3,0.3,0.4,0.6,0.4,1s-0.1,0.7-0.4,1c-0.3,0.3-0.6,0.4-1,0.4S130.8,49.6,130.5,49.3z M132.7,59h-2.4v-8.6h2.4V59z"/>
			<path class="st0" d="M143.6,54.7c0,1.2-0.4,2.3-1.3,3.2c-0.9,0.9-1.9,1.3-3.3,1.3s-2.4-0.4-3.3-1.3s-1.3-1.9-1.3-3.2
				s0.4-2.3,1.3-3.2s1.9-1.3,3.3-1.3s2.4,0.4,3.3,1.3C143.1,52.4,143.6,53.4,143.6,54.7z M136.9,54.7c0,0.7,0.2,1.3,0.6,1.7
				c0.4,0.4,0.9,0.7,1.5,0.7s1.1-0.2,1.5-0.7s0.6-1,0.6-1.7s-0.2-1.3-0.6-1.7s-0.9-0.7-1.5-0.7s-1.1,0.2-1.5,0.7
				C137.1,53.4,136.9,54,136.9,54.7z"/>
			<path class="st0" d="M147.7,54.2V59h-2.4v-8.6h2.4v1c0.7-0.7,1.5-1.1,2.4-1.1s1.7,0.3,2.3,1c0.6,0.6,0.9,1.5,0.9,2.6V59H151v-4.9
				c0-1.3-0.5-2-1.5-2c-0.5,0-0.9,0.2-1.3,0.5S147.7,53.5,147.7,54.2z"/>
			<path class="st0" d="M162.9,59h-2.3v-1c-0.6,0.8-1.4,1.2-2.3,1.2s-1.7-0.3-2.3-0.8c-0.6-0.5-0.9-1.2-0.9-2.1s0.3-1.5,1-2
				c0.6-0.4,1.5-0.7,2.6-0.7h1.8v0c0-0.9-0.5-1.4-1.5-1.4c-0.4,0-0.9,0.1-1.3,0.2s-0.9,0.4-1.2,0.6l-1.1-1.6
				c1.1-0.8,2.4-1.2,3.9-1.2c1,0,1.9,0.3,2.6,0.8c0.7,0.5,1,1.3,1,2.5V59z M160.5,55.7v-0.4H159c-1,0-1.4,0.3-1.4,0.9
				c0,0.3,0.1,0.5,0.3,0.7c0.2,0.2,0.6,0.2,1,0.2c0.4,0,0.8-0.1,1.1-0.4C160.3,56.5,160.5,56.2,160.5,55.7z"/>
			<path class="st0" d="M167.5,59h-2.4V47.1h2.4V59z"/>
			<path class="st0" d="M181.1,47.8h2.5V59h-2.5v-4.4h-4.4V59h-2.5V47.8h2.5v4.7h4.4V47.8z"/>
			<path class="st0" d="M191.7,55v-4.6h2.4V59h-2.4v-1.1c-0.6,0.8-1.4,1.3-2.3,1.3s-1.7-0.3-2.4-0.9s-1-1.5-1-2.6v-5.2h2.4v4.7
				c0,1.3,0.5,2,1.5,2c0.5,0,0.9-0.2,1.2-0.5S191.7,55.7,191.7,55z"/>
			<path class="st0" d="M204.3,54.4V59h-2.4v-4.7c0-0.7-0.1-1.2-0.3-1.5s-0.5-0.5-1-0.5c-0.5,0-0.9,0.2-1.2,0.5s-0.5,0.9-0.5,1.5V59
				h-2.4v-8.6h2.4v1c0.7-0.7,1.4-1.1,2.3-1.1c0.5,0,1,0.2,1.5,0.5c0.4,0.3,0.8,0.7,1,1.2c0.3-0.5,0.8-0.9,1.3-1.2s1.1-0.4,1.7-0.4
				c1,0,1.8,0.3,2.4,0.9s0.9,1.5,0.9,2.6V59h-2.4v-4.7c0-1.3-0.5-2-1.5-2c-0.5,0-0.9,0.2-1.2,0.5S204.3,53.7,204.3,54.4z"/>
			<path class="st0" d="M219.4,59h-2.3v-1c-0.6,0.8-1.4,1.2-2.3,1.2s-1.7-0.3-2.3-0.8c-0.6-0.5-0.9-1.2-0.9-2.1s0.3-1.5,1-2
				c0.6-0.4,1.5-0.7,2.6-0.7h1.8v0c0-0.9-0.5-1.4-1.5-1.4c-0.4,0-0.9,0.1-1.3,0.2s-0.9,0.4-1.2,0.6l-1.1-1.6
				c1.1-0.8,2.4-1.2,3.9-1.2c1,0,1.9,0.3,2.6,0.8c0.7,0.5,1,1.3,1,2.5V59z M217,55.7v-0.4h-1.5c-1,0-1.4,0.3-1.4,0.9
				c0,0.3,0.1,0.5,0.3,0.7c0.2,0.2,0.6,0.2,1,0.2c0.4,0,0.8-0.1,1.1-0.4C216.9,56.5,217,56.2,217,55.7z"/>
			<path class="st0" d="M224,54.2V59h-2.4v-8.6h2.4v1c0.7-0.7,1.5-1.1,2.4-1.1s1.7,0.3,2.3,1c0.6,0.6,0.9,1.5,0.9,2.6V59h-2.4v-4.9
				c0-1.3-0.5-2-1.5-2c-0.5,0-0.9,0.2-1.3,0.5S224,53.5,224,54.2z"/>
			<path class="st0" d="M243.6,53.3h2.5v4c-1.1,1.2-2.6,1.9-4.6,1.9c-1.6,0-3-0.5-4.1-1.6c-1.1-1.1-1.7-2.5-1.7-4.1
				c0-1.7,0.6-3,1.7-4.2c1.1-1.1,2.5-1.7,4.1-1.7s3,0.5,4.2,1.6l-1.3,1.9c-0.5-0.4-1-0.7-1.4-0.9c-0.4-0.2-0.9-0.2-1.4-0.2
				c-1,0-1.8,0.3-2.4,1c-0.7,0.6-1,1.5-1,2.6c0,1.1,0.3,1.9,0.9,2.5s1.4,1,2.2,1c0.9,0,1.6-0.2,2.2-0.5V53.3z"/>
			<path class="st0" d="M255.5,57.8c-1,0.9-2.1,1.4-3.4,1.4s-2.4-0.4-3.2-1.2c-0.9-0.8-1.3-1.9-1.3-3.2c0-1.4,0.4-2.4,1.3-3.2
				c0.9-0.8,1.9-1.2,3.1-1.2s2.2,0.4,3,1.1c0.8,0.7,1.2,1.7,1.2,2.9v1.3H250c0.1,0.5,0.3,0.9,0.7,1.2c0.4,0.3,0.9,0.4,1.4,0.4
				c0.8,0,1.5-0.3,2.1-0.8L255.5,57.8z M253.2,52.6c-0.3-0.3-0.7-0.4-1.2-0.4s-0.9,0.1-1.3,0.4s-0.6,0.7-0.7,1.2h3.8
				C253.8,53.3,253.6,52.9,253.2,52.6z"/>
			<path class="st0" d="M260.4,54.2V59H258v-8.6h2.4v1c0.7-0.7,1.5-1.1,2.4-1.1s1.7,0.3,2.3,1s0.9,1.5,0.9,2.6V59h-2.4v-4.9
				c0-1.3-0.5-2-1.5-2c-0.5,0-0.9,0.2-1.3,0.5S260.4,53.5,260.4,54.2z"/>
			<path class="st0" d="M276.8,54.7c0,1.2-0.4,2.3-1.3,3.2c-0.9,0.9-2,1.3-3.3,1.3s-2.4-0.4-3.3-1.3s-1.3-1.9-1.3-3.2
				s0.4-2.3,1.3-3.2c0.9-0.9,1.9-1.3,3.3-1.3s2.4,0.4,3.3,1.3C276.4,52.4,276.8,53.4,276.8,54.7z M270.1,54.7c0,0.7,0.2,1.3,0.6,1.7
				c0.4,0.4,0.9,0.7,1.5,0.7s1.1-0.2,1.5-0.7s0.6-1,0.6-1.7s-0.2-1.3-0.6-1.7s-0.9-0.7-1.5-0.7s-1.1,0.2-1.5,0.7
				C270.3,53.4,270.1,54,270.1,54.7z"/>
			<path class="st0" d="M286.5,54.4V59h-2.4v-4.7c0-0.7-0.1-1.2-0.3-1.5s-0.5-0.5-1-0.5s-0.9,0.2-1.2,0.5s-0.5,0.9-0.5,1.5V59h-2.4
				v-8.6h2.4v1c0.7-0.7,1.4-1.1,2.3-1.1c0.5,0,1,0.2,1.5,0.5c0.4,0.3,0.8,0.7,1,1.2c0.3-0.5,0.8-0.9,1.3-1.2s1.1-0.4,1.7-0.4
				c1,0,1.8,0.3,2.4,0.9s0.9,1.5,0.9,2.6V59h-2.4v-4.7c0-1.3-0.5-2-1.5-2c-0.5,0-0.9,0.2-1.2,0.5S286.5,53.7,286.5,54.4z"/>
			<path class="st0" d="M301.8,57.8c-1,0.9-2.1,1.4-3.4,1.4s-2.4-0.4-3.2-1.2c-0.9-0.8-1.3-1.9-1.3-3.2c0-1.4,0.4-2.4,1.3-3.2
				c0.9-0.8,1.9-1.2,3.1-1.2s2.2,0.4,3,1.1c0.8,0.7,1.2,1.7,1.2,2.9v1.3h-6.3c0.1,0.5,0.3,0.9,0.7,1.2c0.4,0.3,0.9,0.4,1.4,0.4
				c0.8,0,1.5-0.3,2.1-0.8L301.8,57.8z M299.5,52.6c-0.3-0.3-0.7-0.4-1.2-0.4s-0.9,0.1-1.3,0.4s-0.6,0.7-0.7,1.2h3.8
				C300,53.3,299.8,52.9,299.5,52.6z"/>
			<path class="st0" d="M317.7,51.5c0,1.8-0.7,2.9-2.1,3.5l2.8,4h-3.1l-2.5-3.6h-1.7V59h-2.5V47.8h4.2c1.7,0,3,0.3,3.7,0.9
				S317.7,50.2,317.7,51.5z M314.7,52.9c0.3-0.3,0.5-0.7,0.5-1.3s-0.2-1-0.5-1.2c-0.3-0.2-0.9-0.3-1.7-0.3h-1.9v3.3h1.8
				C313.8,53.3,314.4,53.1,314.7,52.9z"/>
			<path class="st0" d="M327.5,57.8c-1,0.9-2.1,1.4-3.4,1.4s-2.4-0.4-3.2-1.2c-0.9-0.8-1.3-1.9-1.3-3.2c0-1.4,0.4-2.4,1.3-3.2
				c0.9-0.8,1.9-1.2,3.1-1.2s2.2,0.4,3,1.1c0.8,0.7,1.2,1.7,1.2,2.9v1.3h-6.3c0.1,0.5,0.3,0.9,0.7,1.2c0.4,0.3,0.9,0.4,1.4,0.4
				c0.8,0,1.5-0.3,2.1-0.8L327.5,57.8z M325.2,52.6c-0.3-0.3-0.7-0.4-1.2-0.4s-0.9,0.1-1.3,0.4s-0.6,0.7-0.7,1.2h3.8
				C325.7,53.3,325.5,52.9,325.2,52.6z"/>
			<path class="st0" d="M336.4,56.3c0,0.8-0.3,1.5-0.9,2c-0.6,0.5-1.4,0.8-2.4,0.8c-0.6,0-1.3-0.1-2-0.3c-0.7-0.2-1.3-0.6-1.9-1
				l1.1-1.5c0.9,0.7,1.9,1,2.9,1c0.3,0,0.6-0.1,0.7-0.2s0.3-0.3,0.3-0.5c0-0.2-0.1-0.4-0.4-0.6s-0.6-0.3-1.1-0.5s-0.8-0.3-1.1-0.4
				c-0.3-0.1-0.5-0.3-0.9-0.5c-0.7-0.4-1-1-1-1.8c0-0.8,0.3-1.4,1-1.9c0.6-0.5,1.5-0.8,2.5-0.8c1,0,2,0.3,3,1l-0.9,1.6
				c-0.7-0.5-1.5-0.8-2.2-0.8c-0.7,0-1.1,0.2-1.1,0.6c0,0.2,0.1,0.4,0.4,0.5s0.6,0.3,1.2,0.4c0.5,0.2,0.9,0.3,1.2,0.4
				s0.5,0.2,0.8,0.4C336.1,54.9,336.4,55.5,336.4,56.3z"/>
			<path class="st0" d="M345.7,57.8c-1,0.9-2.1,1.4-3.4,1.4s-2.4-0.4-3.2-1.2c-0.9-0.8-1.3-1.9-1.3-3.2c0-1.4,0.4-2.4,1.3-3.2
				c0.9-0.8,1.9-1.2,3.1-1.2s2.2,0.4,3,1.1c0.8,0.7,1.2,1.7,1.2,2.9v1.3h-6.3c0.1,0.5,0.3,0.9,0.7,1.2c0.4,0.3,0.9,0.4,1.4,0.4
				c0.8,0,1.5-0.3,2.1-0.8L345.7,57.8z M343.4,52.6c-0.3-0.3-0.7-0.4-1.2-0.4s-0.9,0.1-1.3,0.4s-0.6,0.7-0.7,1.2h3.8
				C343.9,53.3,343.7,52.9,343.4,52.6z"/>
			<path class="st0" d="M355.5,59h-2.3v-1c-0.6,0.8-1.4,1.2-2.3,1.2s-1.7-0.3-2.3-0.8c-0.6-0.5-0.9-1.2-0.9-2.1s0.3-1.5,1-2
				c0.6-0.4,1.5-0.7,2.6-0.7h1.8v0c0-0.9-0.5-1.4-1.5-1.4c-0.4,0-0.9,0.1-1.3,0.2s-0.9,0.4-1.2,0.6l-1.1-1.6
				c1.1-0.8,2.4-1.2,3.9-1.2c1,0,1.9,0.3,2.6,0.8c0.7,0.5,1,1.3,1,2.5V59z M353,55.7v-0.4h-1.5c-1,0-1.4,0.3-1.4,0.9
				c0,0.3,0.1,0.5,0.3,0.7s0.6,0.2,1,0.2c0.4,0,0.8-0.1,1.1-0.4C352.9,56.5,353,56.2,353,55.7z"/>
			<path class="st0" d="M362.2,52.5c-0.7,0-1.2,0.3-1.6,0.8c-0.4,0.5-0.5,1.2-0.5,2V59h-2.4v-8.6h2.4v1.1c0.3-0.4,0.7-0.7,1.2-0.9
				c0.5-0.2,0.9-0.4,1.4-0.4l0,2.3L362.2,52.5L362.2,52.5z"/>
			<path class="st0" d="M368.3,57c0.8,0,1.5-0.4,2.2-1.2l1.4,1.6c-1.1,1.2-2.3,1.7-3.6,1.7c-1.3,0-2.4-0.4-3.3-1.2s-1.3-1.9-1.3-3.2
				s0.5-2.4,1.4-3.2c0.9-0.8,2-1.2,3.2-1.2c0.6,0,1.2,0.1,1.9,0.4c0.6,0.3,1.2,0.6,1.7,1.1l-1.2,1.6c-0.3-0.3-0.6-0.6-1-0.8
				c-0.4-0.2-0.8-0.3-1.2-0.3c-0.6,0-1.2,0.2-1.6,0.6c-0.5,0.4-0.7,1-0.7,1.7c0,0.7,0.2,1.3,0.7,1.7C367.2,56.8,367.7,57,368.3,57z"
				/>
			<path class="st0" d="M375.9,54.4V59h-2.4V47.1h2.4v4.2c0.7-0.7,1.5-1.1,2.4-1.1s1.7,0.3,2.3,1s0.9,1.5,0.9,2.6V59h-2.4v-4.7
				c0-1.3-0.5-2-1.5-2c-0.5,0-0.9,0.2-1.3,0.5S375.9,53.7,375.9,54.4z"/>
			<path class="st0" d="M388.2,47.8h2.5V59h-2.5V47.8z"/>
			<path class="st0" d="M395.5,54.2V59h-2.4v-8.6h2.4v1c0.7-0.7,1.5-1.1,2.4-1.1c0.9,0,1.7,0.3,2.3,1s0.9,1.5,0.9,2.6V59h-2.4v-4.9
				c0-1.3-0.5-2-1.5-2c-0.5,0-0.9,0.2-1.3,0.5S395.5,53.5,395.5,54.2z"/>
			<path class="st0" d="M409.8,56.3c0,0.8-0.3,1.5-0.9,2c-0.6,0.5-1.4,0.8-2.4,0.8c-0.6,0-1.3-0.1-2-0.3s-1.3-0.6-1.9-1l1.1-1.5
				c0.9,0.7,1.9,1,2.9,1c0.3,0,0.6-0.1,0.7-0.2s0.3-0.3,0.3-0.5c0-0.2-0.1-0.4-0.4-0.6c-0.3-0.2-0.6-0.3-1.1-0.5
				c-0.5-0.1-0.8-0.3-1.1-0.4c-0.2-0.1-0.5-0.3-0.9-0.5c-0.7-0.4-1-1-1-1.8c0-0.8,0.3-1.4,1-1.9c0.6-0.5,1.5-0.8,2.5-0.8s2,0.3,3,1
				l-0.9,1.6c-0.7-0.5-1.5-0.8-2.2-0.8s-1.1,0.2-1.1,0.6c0,0.2,0.1,0.4,0.4,0.5c0.2,0.1,0.6,0.3,1.2,0.4c0.5,0.2,0.9,0.3,1.2,0.4
				c0.2,0.1,0.5,0.2,0.8,0.4C409.5,54.9,409.8,55.5,409.8,56.3z"/>
			<path class="st0" d="M414.5,52.1V56c0,0.3,0.1,0.6,0.3,0.8s0.4,0.3,0.6,0.3c0.4,0,0.8-0.2,1.1-0.6l0.9,1.7c-0.7,0.7-1.5,1-2.4,1
				c-0.8,0-1.5-0.3-2.1-0.8c-0.6-0.5-0.9-1.3-0.9-2.2v-4h-1v-1.7h1v-2.6h2.4v2.6h2.1v1.7H414.5z"/>
			<path class="st0" d="M418.9,49.3c-0.3-0.3-0.4-0.6-0.4-1s0.1-0.7,0.4-1c0.3-0.3,0.6-0.4,1-0.4s0.7,0.1,1,0.4
				c0.3,0.3,0.4,0.6,0.4,1s-0.1,0.7-0.4,1c-0.3,0.3-0.6,0.4-1,0.4S419.1,49.6,418.9,49.3z M421.1,59h-2.4v-8.6h2.4V59z"/>
			<path class="st0" d="M426.2,52.1V56c0,0.3,0.1,0.6,0.3,0.8s0.4,0.3,0.6,0.3c0.4,0,0.8-0.2,1.1-0.6l0.9,1.7c-0.7,0.7-1.5,1-2.4,1
				c-0.8,0-1.5-0.3-2.1-0.8c-0.6-0.5-0.9-1.3-0.9-2.2v-4h-1v-1.7h1v-2.6h2.4v2.6h2.1v1.7H426.2z"/>
			<path class="st0" d="M435.9,55v-4.6h2.4V59h-2.4v-1.1c-0.6,0.8-1.4,1.3-2.3,1.3s-1.7-0.3-2.4-0.9s-1-1.5-1-2.6v-5.2h2.4v4.7
				c0,1.3,0.5,2,1.5,2c0.5,0,0.9-0.2,1.2-0.5C435.8,56.2,435.9,55.7,435.9,55z"/>
			<path class="st0" d="M443.5,52.1V56c0,0.3,0.1,0.6,0.3,0.8s0.4,0.3,0.6,0.3c0.4,0,0.8-0.2,1.1-0.6l0.9,1.7c-0.7,0.7-1.5,1-2.4,1
				c-0.8,0-1.5-0.3-2.1-0.8c-0.6-0.5-0.9-1.3-0.9-2.2v-4h-1v-1.7h1v-2.6h2.4v2.6h2.1v1.7H443.5z"/>
			<path class="st0" d="M455.1,57.8c-1,0.9-2.1,1.4-3.4,1.4s-2.4-0.4-3.2-1.2c-0.9-0.8-1.3-1.9-1.3-3.2c0-1.4,0.4-2.4,1.3-3.2
				s1.9-1.2,3.1-1.2s2.2,0.4,3,1.1s1.2,1.7,1.2,2.9v1.3h-6.3c0.1,0.5,0.3,0.9,0.7,1.2s0.9,0.4,1.4,0.4c0.8,0,1.5-0.3,2.1-0.8
				L455.1,57.8z M452.8,52.6c-0.3-0.3-0.7-0.4-1.2-0.4s-0.9,0.1-1.3,0.4c-0.4,0.3-0.6,0.7-0.7,1.2h3.8
				C453.3,53.3,453.1,52.9,452.8,52.6z"/>
		</g>
	</g>
</g>
</svg>
