<?xml version="1.0" encoding="utf-8"?>
<!-- Generator: Adobe Illustrator 19.0.0, SVG Export Plug-In . SVG Version: 6.00 Build 0)  -->
<svg version="1.1" id="LiveHelp_Logo_1_" xmlns="http://www.w3.org/2000/svg" xmlns:xlink="http://www.w3.org/1999/xlink" x="0px"
	 y="0px" viewBox="0 0 570 189" style="enable-background:new 0 0 570 189;" xml:space="preserve">
<style type="text/css">
	.st0{display:none;}
	.st1{display:inline;}
	.st2{fill:#08B4BB;}
	.st3{fill:#73C6CB;}
	.st4{fill:#00B4BA;}
	.st5{fill:#1F74A6;}
	.st6{fill:#833C8E;}
	.st7{fill:#606161;}
</style>
<g id="Vector_Smart_Object_xA0_Image_1_" class="st0">
	<g class="st1">
		<path class="st2" d="M486,2c3.3,0,6.7,0,10,0c1.7,0.3,3.5,0.6,5.2,0.8c33.9,2.7,65.2,33.9,68,67.8c0.3,1.8,0.5,3.5,0.8,5.3
			c0,3,0,6,0,9c-0.2,1.5-0.5,2.9-0.7,4.4c-4.1,43.6-47.8,76.3-91.2,68c-7.9-1.5-15.5-4.9-23.2-7.4c-18.6-6-36.1-3.3-52.9,6.4
			c0-0.5,0-1-0.1-1.4c12.6-16.2,17-34.2,12.5-54.4c-2.4-10.8-3.2-21.6-1.5-32.7c5-33.7,34.7-62.1,68.7-65.2
			C483.1,2.5,484.5,2.2,486,2z M500.8,92.5c-1.7-9.2,5.2-12.2,10.4-16.8c3-2.7,5.5-6.9,6.4-10.9c3.1-13.1-5.3-26-18.3-29.6
			c-13.7-3.8-28.3,3.3-32.5,16c-1.1,3.4-1.1,7.2-1.6,11.2c6.5,0,11.9,0,17.3,0c0.2-1.7,0.3-2.8,0.6-3.9c0.9-3.9,3.4-6.5,7.3-7.3
			c4-0.8,7.2,0.9,9.3,4.3c2.2,3.5,1.9,7.3-0.8,10.2c-3.1,3.2-6.7,5.9-10.3,8.6c-6,4.7-6.9,10.8-5.3,18.2
			C488.9,92.5,494.3,92.5,500.8,92.5z M500.7,104.3c-6.1,0-11.7,0-17.5,0c0,5.7,0,10.9,0,16.3c6,0,11.6,0,17.5,0
			C500.7,115.1,500.7,110,500.7,104.3z"/>
		<path class="st3" d="M501,2c0.1,0.3,0.1,0.6,0.2,0.8c-1.7-0.3-3.5-0.6-5.2-0.8C497.7,2,499.3,2,501,2z"/>
		<path class="st3" d="M569.2,70.7c0.4-0.2,0.6-0.1,0.8,0.3c0,1.7,0,3.3,0,5C569.7,74.2,569.5,72.5,569.2,70.7z"/>
		<path class="st3" d="M481.6,2.7c0-0.3,0.1-0.5,0.4-0.7c1.3,0,2.7,0,4,0C484.5,2.2,483.1,2.5,481.6,2.7z"/>
		<path class="st3" d="M570,89c-0.2,0.1-0.5,0.3-0.7,0.4c0.2-1.5,0.5-2.9,0.7-4.4C570,86.3,570,87.7,570,89z"/>
		<path class="st3" d="M402,156.4c-0.3,0-0.7,0-1-0.1c0.3-0.5,0.6-0.9,1-1.4C402,155.4,402,155.9,402,156.4z"/>
	</g>
</g>
<g id="Layer_5">
	<g>
		<path class="st4" d="M490,0c-43.9,0-79.5,35.6-79.5,79.5c0,6.7,0.9,13.2,2.5,19.5l-0.2,0.2c1.6,6.4,2.4,13.2,1.9,20.2
			c-1.1,15.9-8,30-18.5,40.4c11.8-8.8,26.7-13.7,42.6-12.6c5.3,0.4,10.4,1.5,15.2,3.1c10.8,5.5,23,8.6,35.9,8.6
			c43.9,0,79.5-35.6,79.5-79.5C569.5,35.6,533.9,0,490,0z M500.7,120.6c-5.9,0-11.5,0-17.5,0c0-5.4,0-10.6,0-16.3
			c5.7,0,11.4,0,17.5,0C500.7,110,500.7,115.1,500.7,120.6z M517.6,64.8c-0.9,3.9-3.4,8.2-6.4,10.9c-5.1,4.6-12.1,7.6-10.4,16.8
			c-6.5,0-11.9,0-17.5,0c-1.6-7.3-0.7-13.5,5.3-18.2c3.5-2.8,7.2-5.4,10.3-8.6c2.7-2.9,3-6.6,0.8-10.2c-2.1-3.5-5.4-5.1-9.3-4.3
			c-3.9,0.7-6.4,3.3-7.3,7.3c-0.3,1.1-0.4,2.3-0.6,3.9c-5.4,0-10.8,0-17.3,0c0.5-3.9,0.5-7.7,1.6-11.2c4.2-12.7,18.8-19.8,32.5-16
			C512.3,38.7,520.7,51.7,517.6,64.8z"/>
		<path class="st4" d="M388.5,166.5c0.1-0.1,0.2-0.2,0.3-0.3C388.7,166.3,388.6,166.4,388.5,166.5
			C388.5,166.5,388.5,166.5,388.5,166.5z"/>
	</g>
</g>
<g id="LiveHelp">
	<g>
		<path class="st5" d="M0,109.2V47.4h13.8v49.5H40v12.3H0z"/>
		<path class="st5" d="M51.6,55.6c-1.5-1.5-2.2-3.3-2.2-5.5c0-2.2,0.7-4,2.2-5.5c1.5-1.5,3.3-2.3,5.5-2.3c2.2,0,4,0.8,5.5,2.3
			c1.5,1.5,2.2,3.3,2.2,5.5c0,2.2-0.8,4-2.2,5.5c-1.5,1.5-3.3,2.3-5.5,2.3C55,57.8,53.1,57.1,51.6,55.6z M63.8,109.2H50.5V61.6h13.2
			V109.2z"/>
		<path class="st5" d="M90.8,109.2L72.1,61.5h13.8l11.8,30l11.8-30h13.8l-18.8,47.7H90.8z"/>
		<path class="st5" d="M172.6,102.3c-5.4,5.1-11.6,7.6-18.8,7.6c-7.2,0-13.2-2.2-17.9-6.7c-4.7-4.5-7.1-10.4-7.1-17.9
			c0-7.5,2.4-13.4,7.2-17.9c4.8-4.4,10.5-6.6,17-6.6c6.5,0,12.1,2,16.6,5.9c4.6,4,6.8,9.4,6.8,16.3v7.1h-34.6
			c0.4,2.6,1.8,4.7,4.1,6.4c2.3,1.7,4.9,2.5,7.8,2.5c4.6,0,8.5-1.6,11.5-4.7L172.6,102.3z M159.9,74.1c-1.8-1.5-4-2.3-6.7-2.3
			c-2.6,0-5,0.8-7.2,2.4c-2.2,1.6-3.4,3.7-3.8,6.5h20.8C162.8,77.8,161.7,75.6,159.9,74.1z"/>
		<path class="st6" d="M227.4,47.4h13.8v61.8h-13.8V84.9h-24.5v24.3h-13.8V47.4h13.8v25.8h24.5V47.4z"/>
		<path class="st6" d="M297.8,102.3c-5.4,5.1-11.6,7.6-18.8,7.6c-7.2,0-13.2-2.2-17.9-6.7c-4.7-4.5-7.1-10.4-7.1-17.9
			c0-7.5,2.4-13.4,7.2-17.9c4.8-4.4,10.5-6.6,17-6.6s12.1,2,16.6,5.9c4.6,4,6.8,9.4,6.8,16.3v7.1h-34.6c0.4,2.6,1.8,4.7,4.1,6.4
			c2.3,1.7,4.9,2.5,7.8,2.5c4.6,0,8.5-1.6,11.5-4.7L297.8,102.3z M285.1,74.1c-1.8-1.5-4-2.3-6.7-2.3c-2.6,0-5,0.8-7.2,2.4
			c-2.2,1.6-3.4,3.7-3.8,6.5h20.8C288,77.8,286.9,75.6,285.1,74.1z"/>
		<path class="st6" d="M326.2,109.2H313V43.6h13.2V109.2z"/>
		<path class="st6" d="M368.1,60.8c5.5,0,10.5,2.3,14.8,6.9c4.3,4.6,6.5,10.5,6.5,17.5c0,7-2.2,12.9-6.5,17.6
			c-4.3,4.7-9.4,7.1-15.2,7.1s-10.5-2.3-14-7v23.4h-13.2V61.6h13.2v5.3C357.8,62.9,362.6,60.8,368.1,60.8z M353.6,85.5
			c0,3.9,1.1,7,3.2,9.5c2.1,2.4,4.7,3.7,7.8,3.7c3.1,0,5.7-1.2,8-3.7c2.3-2.4,3.4-5.6,3.4-9.4c0-3.8-1.1-7-3.4-9.6
			c-2.2-2.6-4.9-3.9-8-3.9c-3.1,0-5.7,1.3-7.9,3.8C354.6,78.4,353.6,81.6,353.6,85.5z"/>
	</g>
</g>
<g id="cancer.gov">
	<g>
		<path class="st7" d="M42.4,175.5c-4.8,0-9-1.6-12.4-4.9c-3.5-3.3-5.2-7.6-5.2-12.9c0-5.3,1.8-9.6,5.4-13c3.6-3.3,8-5,13.3-5
			s9.6,1.8,13.2,5.4l-4.3,5.3c-3-2.6-6-3.9-9.1-3.9c-3,0-5.7,1-7.9,3c-2.2,2-3.4,4.6-3.4,7.8s1.1,5.9,3.3,8.1
			c2.2,2.2,4.9,3.3,8.2,3.3c3.2,0,6.3-1.5,9.2-4.4l4.3,4.7C52.8,173.4,47.9,175.5,42.4,175.5z"/>
		<path class="st7" d="M93.6,175H87v-4.6c-2.9,3.4-6.7,5.2-11.5,5.2c-3.6,0-6.6-1-9-3.1c-2.4-2-3.6-4.8-3.6-8.2c0-3.4,1.3-6,3.8-7.7
			c2.5-1.7,5.9-2.5,10.2-2.5h9.4v-1.3c0-4.6-2.6-6.9-7.7-6.9c-3.2,0-6.6,1.2-10,3.5l-3.3-4.6c4.2-3.4,9-5,14.3-5c4.1,0,7.4,1,10,3.1
			c2.6,2.1,3.9,5.3,3.9,9.8V175z M86.3,162.1v-2.9h-8.2c-5.3,0-7.9,1.7-7.9,5c0,1.7,0.7,3,2,3.9c1.3,0.9,3.1,1.3,5.4,1.3
			c2.3,0,4.4-0.7,6.1-2C85.5,166.1,86.3,164.3,86.3,162.1z"/>
		<path class="st7" d="M112.4,156.2V175h-7.3v-34.7h7.3v6.3c1.2-2.1,2.8-3.8,4.9-5c2.1-1.2,4.3-1.8,6.7-1.8c3.9,0,7.1,1.2,9.5,3.6
			c2.4,2.4,3.6,5.9,3.6,10.4V175h-7.3v-19.1c0-6.4-2.6-9.6-7.9-9.6c-2.5,0-4.7,0.8-6.6,2.5C113.3,150.5,112.4,153,112.4,156.2z"/>
		<path class="st7" d="M163.9,175.5c-4.8,0-9-1.6-12.4-4.9c-3.5-3.3-5.2-7.6-5.2-12.9c0-5.3,1.8-9.6,5.4-13c3.6-3.3,8-5,13.3-5
			s9.6,1.8,13.2,5.4l-4.3,5.3c-3-2.6-6-3.9-9.1-3.9c-3,0-5.7,1-7.9,3c-2.2,2-3.4,4.6-3.4,7.8s1.1,5.9,3.3,8.1
			c2.2,2.2,4.9,3.3,8.2,3.3c3.2,0,6.3-1.5,9.2-4.4l4.3,4.7C174.2,173.4,169.4,175.5,163.9,175.5z"/>
		<path class="st7" d="M219.5,160.8h-27.2c0.2,2.5,1.3,4.6,3.5,6.1c2.1,1.5,4.6,2.3,7.3,2.3c4.3,0,7.6-1.4,9.9-4.1l4.2,4.6
			c-3.7,3.9-8.6,5.8-14.6,5.8c-4.9,0-9-1.6-12.4-4.9c-3.4-3.2-5.1-7.6-5.1-13.1c0-5.5,1.7-9.8,5.2-13c3.5-3.2,7.6-4.8,12.3-4.8
			c4.7,0,8.7,1.4,12,4.3c3.3,2.9,5,6.8,5,11.8V160.8z M192.4,155.1h19.9c0-2.9-0.9-5.2-2.7-6.7s-4.1-2.4-6.7-2.4
			c-2.7,0-5.1,0.8-7.2,2.4C193.4,150.1,192.4,152.3,192.4,155.1z"/>
		<path class="st7" d="M247,147.1c-3.6,0-6.3,1.2-8.1,3.5c-1.8,2.4-2.7,5.5-2.7,9.5V175h-7.3v-34.7h7.3v7c1.2-2.2,2.8-4,4.8-5.4
			c2-1.4,4.2-2.1,6.4-2.2l0.1,7.4C247.3,147.1,247.2,147.1,247,147.1z"/>
		<path class="st7" d="M253.5,174.1c-0.9-1-1.4-2.1-1.4-3.5s0.5-2.5,1.4-3.4c0.9-0.9,2.1-1.4,3.4-1.4c1.3,0,2.5,0.5,3.5,1.4
			c1,0.9,1.4,2.1,1.4,3.4s-0.5,2.5-1.4,3.5c-1,1-2.1,1.4-3.5,1.4C255.6,175.5,254.4,175,253.5,174.1z"/>
		<path class="st7" d="M304.7,140.3v30.3c0,6.1-1.7,10.7-5,13.8c-3.3,3.1-7.6,4.6-12.8,4.6s-9.9-1.6-14.1-4.9l3.5-5.6
			c3.4,2.6,6.8,3.9,10.3,3.9c3.5,0,6.2-0.9,8.2-2.7c2-1.8,3-4.6,3-8.6v-4.4c-1.1,2-2.6,3.7-4.7,4.9c-2,1.2-4.3,1.8-6.8,1.8
			c-4.6,0-8.4-1.6-11.3-4.8c-3-3.2-4.4-7.2-4.4-12c0-4.8,1.5-8.8,4.4-12c3-3.2,6.7-4.8,11.3-4.8c4.6,0,8.3,1.9,11.2,5.7v-5.2H304.7z
			 M277.6,156.3c0,2.9,0.9,5.3,2.6,7.4c1.8,2.1,4.1,3.1,7.1,3.1c3,0,5.4-1,7.2-3c1.8-2,2.8-4.5,2.8-7.5c0-3-0.9-5.5-2.8-7.6
			c-1.9-2.1-4.3-3.1-7.2-3.1c-3,0-5.3,1.1-7.1,3.2C278.5,150.9,277.6,153.4,277.6,156.3z"/>
		<path class="st7" d="M345.5,170.3c-3.5,3.5-7.8,5.2-13,5.2s-9.6-1.7-13-5.2c-3.5-3.5-5.2-7.7-5.2-12.7c0-5,1.7-9.2,5.2-12.7
			c3.5-3.5,7.8-5.2,13-5.2s9.6,1.7,13,5.2c3.5,3.5,5.2,7.7,5.2,12.7C350.7,162.6,349,166.9,345.5,170.3z M324.6,165.8
			c2.1,2.1,4.7,3.2,7.8,3.2s5.8-1.1,7.8-3.2c2.1-2.1,3.1-4.8,3.1-8.2c0-3.4-1-6.1-3.1-8.2c-2.1-2.1-4.7-3.2-7.8-3.2
			s-5.8,1.1-7.8,3.2c-2.1,2.1-3.1,4.8-3.1,8.2C321.6,161,322.6,163.7,324.6,165.8z"/>
		<path class="st7" d="M368.9,175L355,140.3h7.6l10.6,26.3l10.6-26.3h7.6L377.2,175H368.9z"/>
	</g>
</g>
</svg>
