<?xml version="1.0" encoding="utf-8"?>
<!-- Generator: Adobe Illustrator 19.2.1, SVG Export Plug-In . SVG Version: 6.00 Build 0)  -->
<svg version="1.1" id="Layer_1" xmlns="http://www.w3.org/2000/svg" xmlns:xlink="http://www.w3.org/1999/xlink" x="0px" y="0px"
	 viewBox="0 0 348.4 54.5" style="enable-background:new 0 0 348.4 54.5;" xml:space="preserve">
<style type="text/css">
	.st0{fill:#606060;}
	.st1{fill:#BB0E3D;}
	.st2{fill:#FFFFFF;}
</style>
<g>
	<g>
		<path class="st0" d="M75,27.4l-15-27H5.8C2.6,0.4,0,3,0,6.2v42.4c0,3.2,2.6,5.8,5.8,5.8H60L75,27.4z"/>
		<path class="st1" d="M73.5,3.2c-1.1-1.7-3-2.8-5-2.8H64l15.2,27L64,54.4h4.5c2.1,0,4-1.1,5-2.8L87,27.4L73.5,3.2z"/>
	</g>
	<g>
		<rect x="32" y="15.4" class="st2" width="4" height="24"/>
		<polygon class="st2" points="24,15.4 24,33 13,15.4 9,15.4 9,39.4 13,39.4 13,21.8 24,39.4 28,39.4 28,15.4 		"/>
		<polygon class="st2" points="55,15.4 55,25.4 44,25.4 44,15.4 40,15.4 40,39.4 44,39.4 44,29.4 55,29.4 55,39.4 59,39.4 59,15.4 
					"/>
	</g>
</g>
<g>
	<g>
		<path class="st1" d="M107.9,0.4h2.5v11.2h-2.5l-5.3-7v7H100V0.4h2.3l5.5,7.2L107.9,0.4L107.9,0.4z"/>
		<path class="st1" d="M121.1,11.6l-1-2.4h-4.7l-1,2.4h-2.7l4.8-11.2h2.4l4.8,11.2H121.1z M117.7,3.7l-1.4,3.2h2.8L117.7,3.7z"/>
		<path class="st1" d="M128.9,2.6v9h-2.5v-9h-3.2V0.4h8.8v2.2H128.9z"/>
		<path class="st1" d="M133.9,0.4h2.5v11.2h-2.5V0.4z"/>
		<path class="st1" d="M148.6,10c-1.1,1.1-2.5,1.7-4.2,1.7s-3-0.6-4.2-1.7c-1.1-1.1-1.7-2.5-1.7-4.1s0.6-3,1.7-4.1
			c1.1-1.1,2.5-1.7,4.2-1.7s3,0.6,4.2,1.7c1.1,1.1,1.7,2.5,1.7,4.1S149.7,8.9,148.6,10z M147.7,5.9c0-1-0.3-1.8-1-2.6
			s-1.4-1.1-2.4-1.1c-0.9,0-1.7,0.4-2.4,1.1c-0.6,0.7-1,1.6-1,2.6s0.3,1.8,1,2.5c0.6,0.7,1.4,1,2.4,1c0.9,0,1.7-0.3,2.4-1
			C147.4,7.8,147.7,6.9,147.7,5.9z"/>
		<path class="st1" d="M160.2,0.4h2.5v11.2h-2.5l-5.3-7v7h-2.5V0.4h2.3l5.5,7.2V0.4z"/>
		<path class="st1" d="M173.4,11.6l-1-2.4h-4.7l-1,2.4H164l4.8-11.2h2.4l4.8,11.2H173.4z M170.1,3.7l-1.4,3.2h2.8L170.1,3.7z"/>
		<path class="st1" d="M177.4,11.6V0.4h2.5v9h4.8v2.2H177.4z"/>
		<path class="st1" d="M195.8,9.4c1.2,0,2.2-0.5,3-1.5l1.6,1.6c-1.3,1.4-2.8,2.1-4.5,2.1s-3.1-0.5-4.3-1.6s-1.7-2.5-1.7-4.1
			c0-1.7,0.6-3,1.7-4.2c1.1-1.1,2.5-1.7,4.2-1.7c1.8,0,3.4,0.7,4.6,2.1l-1.6,1.8c-0.8-1-1.8-1.5-2.9-1.5c-0.9,0-1.7,0.3-2.4,0.9
			s-1,1.4-1,2.5s0.3,1.9,0.9,2.5C194.2,9.1,194.9,9.4,195.8,9.4z"/>
		<path class="st1" d="M210.3,11.6l-1-2.4h-4.7l-1,2.4h-2.7l4.8-11.2h2.4l4.8,11.2H210.3z M206.9,3.7l-1.4,3.2h2.8L206.9,3.7z"/>
		<path class="st1" d="M222.1,0.4h2.5v11.2h-2.5l-5.3-7v7h-2.5V0.4h2.3l5.5,7.2V0.4z"/>
		<path class="st1" d="M232.5,9.4c1.2,0,2.2-0.5,3-1.5l1.6,1.6c-1.3,1.4-2.8,2.1-4.5,2.1s-3.1-0.5-4.3-1.6s-1.7-2.5-1.7-4.1
			c0-1.7,0.6-3,1.7-4.2c1.1-1.1,2.5-1.7,4.2-1.7c1.8,0,3.4,0.7,4.6,2.1l-1.6,1.8c-0.8-1-1.8-1.5-2.9-1.5c-0.9,0-1.7,0.3-2.4,0.9
			s-1,1.4-1,2.5s0.3,1.9,0.9,2.5C230.8,9.1,231.6,9.4,232.5,9.4z"/>
		<path class="st1" d="M247.1,0.4v2.2h-5.6v2.3h5V7h-5v2.4h5.7v2.2H239V0.4H247.1z"/>
		<path class="st1" d="M258.6,4.1c0,1.8-0.7,2.9-2.1,3.5l2.8,4h-3.1L253.7,8H252v3.6h-2.5V0.4h4.2c1.7,0,3,0.3,3.7,0.9
			S258.6,2.8,258.6,4.1z M255.6,5.4c0.3-0.3,0.5-0.7,0.5-1.3s-0.2-1-0.5-1.2s-0.9-0.3-1.7-0.3H252v3.3h1.8
			C254.7,5.9,255.3,5.7,255.6,5.4z"/>
		<path class="st1" d="M265.4,0.4h2.5v11.2h-2.5V0.4z"/>
		<path class="st1" d="M278.4,0.4h2.5v11.2h-2.5l-5.3-7v7h-2.5V0.4h2.3l5.5,7.2V0.4z"/>
		<path class="st1" d="M286.3,2.6c-0.2,0.2-0.4,0.5-0.4,0.8s0.1,0.6,0.4,0.8c0.3,0.2,1,0.4,2,0.7c1.1,0.3,1.9,0.7,2.5,1.2
			s0.9,1.3,0.9,2.3s-0.4,1.8-1.1,2.4s-1.7,0.9-3,0.9c-1.8,0-3.4-0.7-4.8-2l1.5-1.8c1.2,1.1,2.3,1.6,3.3,1.6c0.5,0,0.8-0.1,1.1-0.3
			s0.4-0.5,0.4-0.8s-0.1-0.6-0.4-0.8s-0.8-0.4-1.6-0.6c-1.3-0.3-2.3-0.7-2.9-1.2s-0.9-1.3-0.9-2.3s0.4-1.9,1.1-2.5
			c0.8-0.6,1.7-0.9,2.9-0.9c0.7,0,1.5,0.1,2.2,0.4s1.4,0.6,2,1.1l-1.3,1.8c-1-0.7-2-1.1-3-1.1C286.9,2.3,286.5,2.4,286.3,2.6z"/>
		<path class="st1" d="M298.5,2.6v9H296v-9h-3.2V0.4h8.8v2.2H298.5z"/>
		<path class="st1" d="M303.5,0.4h2.5v11.2h-2.5V0.4z"/>
		<path class="st1" d="M313.5,2.6v9H311v-9h-3.2V0.4h8.8v2.2H313.5z"/>
		<path class="st1" d="M321.5,8.7c0.4,0.5,1,0.8,1.7,0.8s1.3-0.3,1.7-0.8s0.6-1.2,0.6-2.1V0.4h2.5v6.3c0,1.6-0.4,2.9-1.3,3.7
			c-0.9,0.9-2,1.3-3.4,1.3s-2.5-0.4-3.4-1.3c-0.9-0.9-1.4-2.1-1.4-3.7V0.4h2.5v6.2C320.8,7.5,321,8.2,321.5,8.7z"/>
		<path class="st1" d="M335.2,2.6v9h-2.5v-9h-3.2V0.4h8.8v2.2H335.2z"/>
		<path class="st1" d="M348.3,0.4v2.2h-5.6v2.3h5V7h-5v2.4h5.7v2.2h-8.2V0.4H348.3z"/>
	</g>
</g>
<g>
	<path class="st0" d="M111.7,31.4c-1.4,1.4-3.2,2.1-5.2,2.1s-3.8-0.7-5.2-2.1c-1.4-1.4-2.1-3.1-2.1-5.1c0-2.1,0.7-3.8,2.1-5.1
		s3.2-2.1,5.2-2.1s3.8,0.7,5.2,2.1c1.4,1.4,2.1,3.1,2.1,5.1C113.9,28.3,113.2,30,111.7,31.4z M110.7,26.3c0-1.2-0.4-2.3-1.2-3.2
		s-1.8-1.3-3-1.3s-2.1,0.4-2.9,1.3c-0.8,0.9-1.2,1.9-1.2,3.2s0.4,2.3,1.2,3.2c0.8,0.9,1.8,1.3,2.9,1.3c1.2,0,2.2-0.4,3-1.3
		C110.3,28.6,110.7,27.5,110.7,26.3z"/>
	<path class="st0" d="M119.7,22v0.7h2.6v2.2h-2.6v8.5h-3v-8.5h-1.3v-2.2h1.3V22c0-1.2,0.4-2.1,1.1-2.8s1.6-1,2.7-1s2,0.4,2.9,1.2
		l-1.1,2c-0.4-0.5-0.9-0.8-1.5-0.8c-0.3,0-0.6,0.1-0.8,0.3C119.8,21.2,119.7,21.5,119.7,22z"/>
	<path class="st0" d="M127.7,22v0.7h2.6v2.2h-2.6v8.5h-3v-8.5h-1.3v-2.2h1.3V22c0-1.2,0.4-2.1,1.1-2.8s1.6-1,2.7-1s2,0.4,2.9,1.2
		l-1.1,2c-0.4-0.5-0.9-0.8-1.5-0.8c-0.3,0-0.6,0.1-0.8,0.3C127.8,21.2,127.7,21.5,127.7,22z"/>
	<path class="st0" d="M132.4,21.2c-0.3-0.3-0.5-0.8-0.5-1.2s0.2-0.9,0.5-1.2s0.8-0.5,1.2-0.5s0.9,0.2,1.2,0.5s0.5,0.8,0.5,1.2
		s-0.2,0.9-0.5,1.2s-0.8,0.5-1.2,0.5S132.8,21.6,132.4,21.2z M135.2,33.3h-3V22.6h3V33.3z"/>
	<path class="st0" d="M143.2,30.8c1,0,1.9-0.5,2.7-1.5l1.8,2c-1.4,1.4-2.9,2.2-4.5,2.2s-3-0.5-4.1-1.5s-1.7-2.4-1.7-4s0.6-3,1.7-4
		c1.1-1,2.5-1.5,4-1.5c0.8,0,1.6,0.2,2.3,0.5c0.8,0.3,1.5,0.8,2.1,1.4l-1.6,2c-0.3-0.4-0.8-0.7-1.3-1c-0.5-0.2-1-0.3-1.5-0.3
		c-0.8,0-1.5,0.3-2,0.8s-0.8,1.2-0.8,2.1c0,0.9,0.3,1.6,0.8,2.1S142.4,30.8,143.2,30.8z"/>
	<path class="st0" d="M159,31.8c-1.2,1.1-2.6,1.7-4.3,1.7c-1.6,0-3-0.5-4-1.5c-1.1-1-1.6-2.4-1.6-4s0.5-3,1.6-4s2.4-1.5,3.8-1.5
		c1.5,0,2.7,0.4,3.8,1.3c1,0.9,1.5,2.1,1.5,3.7v1.6H152c0.1,0.6,0.4,1.1,0.9,1.4c0.5,0.4,1.1,0.6,1.8,0.6c1.1,0,1.9-0.4,2.6-1.1
		L159,31.8z M156.1,25.4c-0.4-0.3-0.9-0.5-1.5-0.5s-1.1,0.2-1.6,0.5s-0.8,0.8-0.9,1.5h4.7C156.8,26.2,156.5,25.8,156.1,25.4z"/>
	<path class="st0" d="M178.1,28c0,1.6-0.5,2.9-1.6,3.9c-1.1,1.1-2.4,1.6-4.1,1.6c-1.6,0-3-0.5-4.1-1.6s-1.6-2.4-1.6-3.9
		s0.5-2.9,1.6-4s2.4-1.6,4.1-1.6c1.6,0,3,0.5,4.1,1.6C177.5,25.1,178.1,26.4,178.1,28z M169.7,28c0,0.9,0.2,1.6,0.8,2.1
		s1.1,0.8,1.9,0.8c0.8,0,1.4-0.3,1.9-0.8s0.8-1.3,0.8-2.1s-0.2-1.6-0.8-2.2s-1.1-0.8-1.9-0.8c-0.8,0-1.4,0.3-1.9,0.8
		S169.7,27.1,169.7,28z"/>
	<path class="st0" d="M183.7,22v0.7h2.6v2.2h-2.6v8.5h-3v-8.5h-1.3v-2.2h1.3V22c0-1.2,0.4-2.1,1.1-2.8s1.6-1,2.7-1s2,0.4,2.9,1.2
		l-1.1,2c-0.4-0.5-0.9-0.8-1.5-0.8c-0.3,0-0.6,0.1-0.8,0.3C183.8,21.2,183.7,21.5,183.7,22z"/>
	<path class="st0" d="M200.1,30.6c1.5,0,2.8-0.6,3.8-1.8l2,2.1c-1.6,1.8-3.5,2.7-5.6,2.7s-3.9-0.7-5.3-2c-1.4-1.4-2.1-3.1-2.1-5.1
		s0.7-3.8,2.1-5.2c1.4-1.4,3.2-2.1,5.2-2.1c2.3,0,4.2,0.9,5.8,2.6l-1.9,2.2c-1-1.2-2.2-1.8-3.7-1.8c-1.2,0-2.2,0.4-3,1.1
		c-0.8,0.8-1.2,1.8-1.2,3.1s0.4,2.3,1.2,3.1C198.1,30.2,199,30.6,200.1,30.6z"/>
	<path class="st0" d="M217.1,33.3h-2.8V32c-0.8,1-1.7,1.5-2.9,1.5s-2.1-0.3-2.9-1s-1.2-1.5-1.2-2.6s0.4-1.9,1.2-2.5
		c0.8-0.5,1.9-0.8,3.3-0.8h2.2v-0.1c0-1.1-0.6-1.7-1.8-1.7c-0.5,0-1.1,0.1-1.7,0.3c-0.6,0.2-1.1,0.5-1.5,0.8l-1.3-1.9
		c1.4-1,3-1.5,4.8-1.5c1.3,0,2.4,0.3,3.2,1s1.2,1.7,1.2,3.1v6.7H217.1z M214.1,29.2v-0.5h-1.9c-1.2,0-1.8,0.4-1.8,1.1
		c0,0.4,0.1,0.7,0.4,0.9c0.3,0.2,0.7,0.3,1.2,0.3s1-0.2,1.4-0.5C213.9,30.2,214.1,29.8,214.1,29.2z"/>
	<path class="st0" d="M222.8,27.3v6h-3V22.6h3v1.2c0.9-0.9,1.9-1.4,3.1-1.4c1.1,0,2.1,0.4,2.8,1.2c0.8,0.8,1.2,1.9,1.2,3.2v6.5h-3
		v-6.1c0-1.7-0.6-2.5-1.8-2.5c-0.6,0-1.1,0.2-1.6,0.6C223,25.9,222.8,26.5,222.8,27.3z"/>
	<path class="st0" d="M237.8,30.8c1,0,1.9-0.5,2.7-1.5l1.8,2c-1.4,1.4-2.9,2.2-4.5,2.2s-3-0.5-4.1-1.5s-1.7-2.4-1.7-4s0.6-3,1.7-4
		c1.1-1,2.5-1.5,4-1.5c0.8,0,1.6,0.2,2.3,0.5c0.8,0.3,1.5,0.8,2.1,1.4l-1.6,2c-0.3-0.4-0.8-0.7-1.3-1c-0.5-0.2-1-0.3-1.5-0.3
		c-0.8,0-1.5,0.3-2,0.8s-0.8,1.2-0.8,2.1c0,0.9,0.3,1.6,0.8,2.1S237,30.8,237.8,30.8z"/>
	<path class="st0" d="M253.6,31.8c-1.2,1.1-2.6,1.7-4.3,1.7c-1.6,0-3-0.5-4-1.5c-1.1-1-1.6-2.4-1.6-4s0.5-3,1.6-4s2.4-1.5,3.8-1.5
		c1.5,0,2.7,0.4,3.8,1.3c1,0.9,1.5,2.1,1.5,3.7v1.6h-7.8c0.1,0.6,0.4,1.1,0.9,1.4c0.5,0.4,1.1,0.6,1.8,0.6c1.1,0,1.9-0.4,2.6-1.1
		L253.6,31.8z M250.7,25.4c-0.4-0.3-0.9-0.5-1.5-0.5s-1.1,0.2-1.6,0.5s-0.8,0.8-0.9,1.5h4.7C251.3,26.2,251.1,25.8,250.7,25.4z"/>
	<path class="st0" d="M262.3,25.2c-0.9,0-1.6,0.3-2,1c-0.4,0.6-0.7,1.5-0.7,2.5v4.7h-3V22.6h3V24c0.4-0.4,0.9-0.8,1.5-1.1
		s1.2-0.5,1.8-0.5v2.8C262.9,25.2,262.3,25.2,262.3,25.2z"/>
	<path class="st0" d="M276.8,30.6c1.5,0,2.8-0.6,3.8-1.8l2,2.1c-1.6,1.8-3.5,2.7-5.6,2.7s-3.9-0.7-5.3-2c-1.4-1.4-2.1-3.1-2.1-5.1
		s0.7-3.8,2.1-5.2s3.2-2.1,5.2-2.1c2.3,0,4.2,0.9,5.8,2.6l-1.9,2.2c-1-1.2-2.2-1.8-3.7-1.8c-1.2,0-2.2,0.4-3,1.1
		c-0.8,0.8-1.2,1.8-1.2,3.1s0.4,2.3,1.2,3.1C274.8,30.2,275.7,30.6,276.8,30.6z"/>
	<path class="st0" d="M287.7,33.3h-3V18.5h3V33.3z"/>
	<path class="st0" d="M290.8,21.2c-0.3-0.3-0.5-0.8-0.5-1.2s0.2-0.9,0.5-1.2s0.8-0.5,1.2-0.5s0.9,0.2,1.2,0.5
		c0.3,0.3,0.5,0.8,0.5,1.2s-0.2,0.9-0.5,1.2s-0.8,0.5-1.2,0.5S291.2,21.6,290.8,21.2z M293.6,33.3h-3V22.6h3V33.3z"/>
	<path class="st0" d="M299.4,27.3v6h-3V22.6h3v1.2c0.9-0.9,1.9-1.4,3.1-1.4c1.1,0,2.1,0.4,2.8,1.2c0.8,0.8,1.2,1.9,1.2,3.2v6.5h-3
		v-6.1c0-1.7-0.6-2.5-1.8-2.5c-0.6,0-1.1,0.2-1.6,0.6C299.6,25.9,299.4,26.5,299.4,27.3z"/>
	<path class="st0" d="M309.5,21.2c-0.3-0.3-0.5-0.8-0.5-1.2s0.2-0.9,0.5-1.2s0.8-0.5,1.2-0.5s0.9,0.2,1.2,0.5
		c0.3,0.3,0.5,0.8,0.5,1.2s-0.2,0.9-0.5,1.2s-0.8,0.5-1.2,0.5S309.8,21.6,309.5,21.2z M312.2,33.3h-3V22.6h3V33.3z"/>
	<path class="st0" d="M320.2,30.8c1,0,1.9-0.5,2.7-1.5l1.8,2c-1.4,1.4-2.9,2.2-4.5,2.2s-3-0.5-4.1-1.5s-1.7-2.4-1.7-4s0.6-3,1.7-4
		s2.5-1.5,4-1.5c0.8,0,1.6,0.2,2.3,0.5c0.8,0.3,1.5,0.8,2.1,1.4l-1.6,2c-0.3-0.4-0.8-0.7-1.3-1c-0.5-0.2-1-0.3-1.5-0.3
		c-0.8,0-1.5,0.3-2,0.8s-0.8,1.2-0.8,2.1c0,0.9,0.3,1.6,0.8,2.1S319.4,30.8,320.2,30.8z"/>
	<path class="st0" d="M335.8,33.3H333V32c-0.8,1-1.7,1.5-2.9,1.5s-2.1-0.3-2.9-1S326,31,326,29.9s0.4-1.9,1.2-2.5
		c0.8-0.5,1.9-0.8,3.3-0.8h2.2v-0.1c0-1.1-0.6-1.7-1.8-1.7c-0.5,0-1.1,0.1-1.7,0.3s-1.1,0.5-1.5,0.8l-1.3-1.9c1.4-1,3-1.5,4.8-1.5
		c1.3,0,2.4,0.3,3.2,1c0.8,0.7,1.2,1.7,1.2,3.1v6.7H335.8z M332.8,29.2v-0.5h-1.9c-1.2,0-1.8,0.4-1.8,1.1c0,0.4,0.1,0.7,0.4,0.9
		s0.7,0.3,1.2,0.3s1-0.2,1.4-0.5C332.6,30.2,332.8,29.8,332.8,29.2z"/>
	<path class="st0" d="M341.6,33.3h-3V18.5h3V33.3z"/>
	<path class="st0" d="M109.6,41.6c1,0.8,1.5,2.1,1.5,3.8s-0.5,3-1.5,3.8s-2.5,1.2-4.6,1.2h-1.9v3.9H100V40.4h4.9
		C107.1,40.4,108.6,40.8,109.6,41.6z M107.3,47.1c0.4-0.4,0.6-1,0.6-1.8s-0.2-1.4-0.7-1.7c-0.5-0.3-1.2-0.5-2.3-0.5h-1.8v4.7h2.1
		C106.2,47.7,107,47.5,107.3,47.1z"/>
	<path class="st0" d="M118.9,46.2c-0.9,0-1.6,0.3-2,1c-0.4,0.6-0.7,1.5-0.7,2.5v4.7h-3V43.6h3V45c0.4-0.4,0.9-0.8,1.5-1.1
		s1.2-0.5,1.8-0.5v2.8H118.9z"/>
	<path class="st0" d="M132,49c0,1.6-0.5,2.9-1.6,3.9c-1.1,1.1-2.4,1.6-4.1,1.6c-1.6,0-3-0.5-4.1-1.6s-1.6-2.4-1.6-3.9
		c0-1.6,0.5-2.9,1.6-4s2.4-1.6,4.1-1.6c1.6,0,3,0.5,4.1,1.6S132,47.4,132,49z M123.7,49c0,0.9,0.2,1.6,0.8,2.1
		c0.5,0.6,1.1,0.8,1.9,0.8c0.8,0,1.4-0.3,1.9-0.8c0.5-0.6,0.8-1.3,0.8-2.1s-0.2-1.6-0.8-2.2s-1.1-0.8-1.9-0.8
		c-0.8,0-1.4,0.3-1.9,0.8S123.7,48.1,123.7,49z"/>
	<path class="st0" d="M137.6,45.7v4.8c0,0.4,0.1,0.7,0.3,1c0.2,0.2,0.5,0.3,0.8,0.3c0.6,0,1-0.3,1.4-0.8l1.1,2.1
		c-0.9,0.9-1.9,1.3-3,1.3s-1.9-0.3-2.6-1c-0.7-0.7-1.1-1.6-1.1-2.8v-5h-1.3v-2.2h1.3v-3h3v3.2h2.6v2.2L137.6,45.7L137.6,45.7z"/>
	<path class="st0" d="M152.2,52.8c-1.2,1.1-2.6,1.7-4.3,1.7c-1.6,0-3-0.5-4-1.5s-1.6-2.4-1.6-4.1s0.5-3,1.6-4s2.4-1.5,3.8-1.5
		c1.5,0,2.7,0.4,3.8,1.3c1,0.9,1.5,2.1,1.5,3.7V50h-7.8c0.1,0.6,0.4,1.1,0.9,1.4c0.5,0.4,1.1,0.6,1.8,0.6c1.1,0,1.9-0.4,2.6-1.1
		L152.2,52.8z M149.3,46.4c-0.4-0.3-0.9-0.5-1.5-0.5s-1.1,0.2-1.6,0.5s-0.8,0.8-0.9,1.5h4.7C150,47.2,149.7,46.8,149.3,46.4z"/>
	<path class="st0" d="M166,49c0,1.6-0.5,2.9-1.6,3.9c-1.1,1.1-2.4,1.6-4.1,1.6c-1.6,0-3-0.5-4.1-1.6s-1.6-2.4-1.6-3.9
		c0-1.6,0.5-2.9,1.6-4s2.4-1.6,4.1-1.6c1.6,0,3,0.5,4.1,1.6C165.4,46.1,166,47.4,166,49z M157.6,49c0,0.9,0.2,1.6,0.8,2.1
		c0.5,0.6,1.1,0.8,1.9,0.8c0.8,0,1.4-0.3,1.9-0.8c0.5-0.6,0.8-1.3,0.8-2.1s-0.2-1.6-0.8-2.2s-1.1-0.8-1.9-0.8
		c-0.8,0-1.4,0.3-1.9,0.8S157.6,48.1,157.6,49z"/>
	<path class="st0" d="M178.1,48.5v5.8h-3v-5.9c0-0.9-0.1-1.5-0.4-1.9c-0.3-0.4-0.7-0.6-1.3-0.6s-1.1,0.2-1.5,0.7s-0.7,1.1-0.7,1.9
		v5.8h-3V43.6h3v1.2c0.8-0.9,1.8-1.4,2.8-1.4c0.7,0,1.3,0.2,1.9,0.6c0.6,0.4,1,0.9,1.2,1.5c0.4-0.7,1-1.2,1.7-1.5
		c0.7-0.4,1.4-0.5,2.1-0.5c1.3,0,2.3,0.4,3.1,1.1c0.8,0.8,1.2,1.8,1.2,3.3v6.5h-3v-5.9c0-1.7-0.6-2.5-1.8-2.5
		c-0.6,0-1.1,0.2-1.6,0.7S178.1,47.7,178.1,48.5z"/>
	<path class="st0" d="M188.1,42.2c-0.3-0.3-0.5-0.8-0.5-1.2s0.2-0.9,0.5-1.2s0.8-0.5,1.2-0.5s0.9,0.2,1.2,0.5s0.5,0.8,0.5,1.2
		c0,0.4-0.2,0.9-0.5,1.2s-0.8,0.5-1.2,0.5S188.5,42.6,188.1,42.2z M190.9,54.3h-3V43.6h3V54.3z"/>
	<path class="st0" d="M198.9,51.8c1,0,1.9-0.5,2.7-1.5l1.8,2c-1.4,1.4-2.9,2.2-4.5,2.2s-3-0.5-4.1-1.5s-1.7-2.4-1.7-4s0.6-3,1.7-4
		c1.1-1,2.5-1.6,4-1.6c0.8,0,1.6,0.2,2.3,0.5c0.8,0.3,1.5,0.8,2.1,1.4l-1.6,2c-0.3-0.4-0.8-0.7-1.3-1s-1-0.3-1.5-0.3
		c-0.8,0-1.5,0.3-2,0.8c-0.6,0.5-0.8,1.2-0.8,2.1s0.3,1.6,0.8,2.1S198.1,51.8,198.9,51.8z"/>
	<path class="st0" d="M213.4,51c0,1.1-0.4,1.9-1.2,2.5s-1.8,1-3,1c-0.8,0-1.6-0.1-2.5-0.4s-1.6-0.7-2.3-1.3l1.3-1.9
		c1.1,0.9,2.3,1.3,3.6,1.3c0.4,0,0.7-0.1,0.9-0.2c0.2-0.2,0.3-0.4,0.3-0.6s-0.2-0.5-0.5-0.7s-0.8-0.4-1.4-0.6
		c-0.6-0.2-1-0.3-1.4-0.5c-0.3-0.1-0.7-0.3-1.1-0.6c-0.8-0.5-1.2-1.3-1.2-2.2c0-1,0.4-1.8,1.2-2.4s1.8-0.9,3.1-0.9s2.5,0.4,3.8,1.3
		l-1.1,2c-0.9-0.6-1.9-1-2.8-1s-1.4,0.3-1.4,0.8c0,0.3,0.1,0.5,0.4,0.7s0.8,0.3,1.5,0.6c0.7,0.2,1.2,0.4,1.5,0.5s0.6,0.3,1,0.5
		C213.1,49.2,213.4,49.9,213.4,51z"/>
	<path class="st0" d="M232.7,45c0,2.2-0.9,3.7-2.7,4.3l3.5,5h-3.8l-3.1-4.5h-2.2v4.5h-3.1V40.4h5.3c2.2,0,3.7,0.4,4.7,1.1
		S232.7,43.4,232.7,45z M228.9,46.7c0.4-0.3,0.6-0.9,0.6-1.7c0-0.8-0.2-1.3-0.6-1.5c-0.4-0.3-1.1-0.4-2.1-0.4h-2.3v4.1h2.3
		C227.8,47.2,228.5,47,228.9,46.7z"/>
	<path class="st0" d="M244.9,52.8c-1.2,1.1-2.6,1.7-4.3,1.7c-1.6,0-3-0.5-4-1.5s-1.6-2.4-1.6-4.1s0.5-3,1.6-4s2.4-1.5,3.8-1.5
		c1.5,0,2.7,0.4,3.8,1.3c1,0.9,1.5,2.1,1.5,3.7V50h-7.8c0.1,0.6,0.4,1.1,0.9,1.4c0.5,0.4,1.1,0.6,1.8,0.6c1.1,0,1.9-0.4,2.6-1.1
		L244.9,52.8z M242,46.4c-0.4-0.3-0.9-0.5-1.5-0.5s-1.1,0.2-1.6,0.5s-0.8,0.8-0.9,1.5h4.7C242.7,47.2,242.4,46.8,242,46.4z"/>
	<path class="st0" d="M256,51c0,1.1-0.4,1.9-1.2,2.5c-0.8,0.6-1.8,1-3,1c-0.8,0-1.6-0.1-2.5-0.4s-1.6-0.7-2.3-1.3l1.3-1.9
		c1.1,0.9,2.3,1.3,3.6,1.3c0.4,0,0.7-0.1,0.9-0.2c0.2-0.2,0.3-0.4,0.3-0.6s-0.2-0.5-0.5-0.7s-0.8-0.4-1.4-0.6s-1-0.3-1.4-0.5
		c-0.3-0.1-0.7-0.3-1.1-0.6c-0.8-0.5-1.2-1.3-1.2-2.2c0-1,0.4-1.8,1.2-2.4s1.8-0.9,3.1-0.9s2.5,0.4,3.8,1.3l-1.1,2
		c-0.9-0.6-1.9-1-2.8-1s-1.4,0.3-1.4,0.8c0,0.3,0.1,0.5,0.4,0.7s0.8,0.3,1.5,0.6c0.7,0.2,1.2,0.4,1.5,0.5s0.6,0.3,1,0.5
		C255.6,49.2,256,49.9,256,51z"/>
	<path class="st0" d="M267.6,52.8c-1.2,1.1-2.6,1.7-4.3,1.7c-1.6,0-3-0.5-4-1.5s-1.6-2.4-1.6-4.1s0.5-3,1.6-4s2.4-1.5,3.8-1.5
		c1.5,0,2.7,0.4,3.8,1.3c1,0.9,1.5,2.1,1.5,3.7V50h-7.8c0.1,0.6,0.4,1.1,0.9,1.4c0.5,0.4,1.1,0.6,1.8,0.6c1.1,0,1.9-0.4,2.6-1.1
		L267.6,52.8z M264.8,46.4c-0.4-0.3-0.9-0.5-1.5-0.5s-1.1,0.2-1.6,0.5s-0.8,0.8-0.9,1.5h4.7C265.4,47.2,265.2,46.8,264.8,46.4z"/>
	<path class="st0" d="M279.8,54.3H277V53c-0.8,1-1.7,1.5-2.9,1.5s-2.1-0.3-2.9-1S270,52,270,50.9s0.4-1.9,1.2-2.5
		c0.8-0.5,1.9-0.8,3.3-0.8h2.2v-0.1c0-1.1-0.6-1.7-1.8-1.7c-0.5,0-1.1,0.1-1.7,0.3c-0.6,0.2-1.1,0.5-1.5,0.8l-1.3-1.9
		c1.4-1,3-1.5,4.8-1.5c1.3,0,2.4,0.3,3.2,1c0.8,0.7,1.2,1.7,1.2,3.1v6.7H279.8z M276.8,50.2v-0.5h-1.9c-1.2,0-1.8,0.4-1.8,1.1
		c0,0.4,0.1,0.7,0.4,0.9c0.3,0.2,0.7,0.3,1.2,0.3s1-0.2,1.4-0.5C276.6,51.2,276.8,50.8,276.8,50.2z"/>
	<path class="st0" d="M288.2,46.2c-0.9,0-1.6,0.3-2,1c-0.4,0.6-0.7,1.5-0.7,2.5v4.7h-3V43.6h3V45c0.4-0.4,0.9-0.8,1.5-1.1
		s1.2-0.5,1.8-0.5v2.8H288.2z"/>
	<path class="st0" d="M295.9,51.8c1,0,1.9-0.5,2.7-1.5l1.8,2c-1.4,1.4-2.9,2.2-4.5,2.2s-3-0.5-4.1-1.5s-1.7-2.4-1.7-4s0.6-3,1.7-4
		s2.5-1.6,4-1.6c0.8,0,1.6,0.2,2.3,0.5c0.8,0.3,1.5,0.8,2.1,1.4l-1.6,2c-0.3-0.4-0.8-0.7-1.3-1s-1-0.3-1.5-0.3c-0.8,0-1.5,0.3-2,0.8
		c-0.6,0.5-0.8,1.2-0.8,2.1s0.3,1.6,0.8,2.1S295.2,51.8,295.9,51.8z"/>
	<path class="st0" d="M305.4,48.5v5.8h-3V39.5h3v5.3c0.9-0.9,1.9-1.4,3-1.4s2.1,0.4,2.9,1.2c0.8,0.8,1.2,1.9,1.2,3.2v6.5h-3v-5.9
		c0-1.7-0.6-2.5-1.8-2.5c-0.6,0-1.1,0.2-1.6,0.7S305.4,47.7,305.4,48.5z"/>
</g>
</svg>
