<?xml version="1.0" encoding="iso-8859-1"?>
<!-- Generator: Adobe Illustrator 18.1.1, SVG Export Plug-In . SVG Version: 6.00 Build 0)  -->
<svg version="1.1" id="Layer_1" xmlns="http://www.w3.org/2000/svg" xmlns:xlink="http://www.w3.org/1999/xlink" x="0px" y="0px"
	 viewBox="-394.418 307.71 18.899 18.519" style="enable-background:new -394.418 307.71 18.899 18.519;" xml:space="preserve">
<path style="fill:#086F89;" d="M-393.418,312.328c0,1.572,0.525,2.706,1.559,3.372c0.848,0.547,1.831,0.629,2.342,0.629
	c0.124,0,0.224-0.006,0.294-0.011c0,0-0.162,1.056,0.621,2.1h-0.036c-1.356,0-5.78,0.283-5.78,3.922c0,3.7,4.063,3.888,4.878,3.888
	c0.064,0,0.102-0.002,0.102-0.002c0.008,0,0.066,0.002,0.166,0.002c0.523,0,1.875-0.065,3.13-0.677
	c1.629-0.789,2.455-2.166,2.455-4.088c0-1.856-1.258-2.961-2.177-3.769c-0.561-0.493-1.046-0.919-1.046-1.332
	c0-0.421,0.355-0.738,0.802-1.138c0.725-0.647,1.409-1.57,1.409-3.314c0-1.533-0.199-2.563-1.425-3.217
	c0.127-0.065,0.58-0.113,0.803-0.144c0.664-0.09,1.635-0.194,1.635-0.736v-0.104h-4.839
	C-388.573,307.712-393.418,307.891-393.418,312.328z M-385.607,321.812c0.093,1.479-1.173,2.571-3.075,2.708
	c-1.931,0.142-3.52-0.727-3.612-2.205c-0.045-0.711,0.267-1.406,0.879-1.96c0.62-0.561,1.471-0.908,2.397-0.976
	c0.109-0.006,0.218-0.013,0.326-0.013C-386.904,319.366-385.694,320.416-385.607,321.812z M-386.871,311.315
	c0.475,1.671-0.242,3.415-1.385,3.738c-0.132,0.037-0.266,0.055-0.404,0.055c-1.046,0-2.082-1.059-2.467-2.518
	c-0.215-0.817-0.197-1.534,0.049-2.222c0.241-0.679,0.677-1.134,1.224-1.289c0.132-0.037,0.267-0.056,0.405-0.056
	C-388.186,309.023-387.374,309.547-386.871,311.315z M-378.676,314.865v-3.157h-2.104v3.157h-3.157v2.104h3.157v3.157h2.104v-3.157
	h3.157v-2.104H-378.676z"/>
</svg>
