<?xml version="1.0" encoding="utf-8"?>
<!-- Generator: Adobe Illustrator 18.1.1, SVG Export Plug-In . SVG Version: 6.00 Build 0)  -->
<svg version="1.1" id="LiveHelp_Logo_1_" xmlns="http://www.w3.org/2000/svg" xmlns:xlink="http://www.w3.org/1999/xlink" x="0px"
	 y="0px" viewBox="0 174.7 792 262.6" enable-background="new 0 174.7 792 262.6" xml:space="preserve">
<g id="Vector_Smart_Object_xA0_Image_1_" display="none">
	<g display="inline">
		<path fill="#08B4BB" d="M675.3,177.5c4.6,0,9.3,0,13.9,0c2.4,0.4,4.9,0.8,7.2,1.1c47.1,3.8,90.6,47.1,94.5,94.2
			c0.4,2.5,0.7,4.9,1.1,7.4c0,4.2,0,8.3,0,12.5c-0.3,2.1-0.7,4-1,6.1c-5.7,60.6-66.4,106-126.7,94.5c-11-2.1-21.5-6.8-32.2-10.3
			c-25.8-8.3-50.2-4.6-73.5,8.9c0-0.7,0-1.4-0.1-1.9c17.5-22.5,23.6-47.5,17.4-75.6c-3.3-15-4.4-30-2.1-45.4
			c6.9-46.8,48.2-86.3,95.5-90.6C671.3,178.2,673.2,177.8,675.3,177.5z M695.8,303.2c-2.4-12.8,7.2-17,14.5-23.3
			c4.2-3.8,7.6-9.6,8.9-15.1c4.3-18.2-7.4-36.1-25.4-41.1c-19-5.3-39.3,4.6-45.2,22.2c-1.5,4.7-1.5,10-2.2,15.6c9,0,16.5,0,24,0
			c0.3-2.4,0.4-3.9,0.8-5.4c1.3-5.4,4.7-9,10.1-10.1c5.6-1.1,10,1.3,12.9,6c3.1,4.9,2.6,10.1-1.1,14.2c-4.3,4.4-9.3,8.2-14.3,11.9
			c-8.3,6.5-9.6,15-7.4,25.3C679.3,303.2,686.8,303.2,695.8,303.2z M695.7,319.6c-8.5,0-16.3,0-24.3,0c0,7.9,0,15.1,0,22.6
			c8.3,0,16.1,0,24.3,0C695.7,334.6,695.7,327.5,695.7,319.6z"/>
		<path fill="#73C6CB" d="M696.1,177.5c0.1,0.4,0.1,0.8,0.3,1.1c-2.4-0.4-4.9-0.8-7.2-1.1C691.5,177.5,693.8,177.5,696.1,177.5z"/>
		<path fill="#73C6CB" d="M790.9,272.9c0.6-0.3,0.8-0.1,1.1,0.4c0,2.4,0,4.6,0,6.9C791.6,277.8,791.3,275.4,790.9,272.9z"/>
		<path fill="#73C6CB" d="M669.2,178.4c0-0.4,0.1-0.7,0.6-1c1.8,0,3.8,0,5.6,0C673.2,177.8,671.3,178.2,669.2,178.4z"/>
		<path fill="#73C6CB" d="M792,298.4c-0.3,0.1-0.7,0.4-1,0.6c0.3-2.1,0.7-4,1-6.1C792,294.6,792,296.6,792,298.4z"/>
		<path fill="#73C6CB" d="M558.6,392c-0.4,0-1,0-1.4-0.1c0.4-0.7,0.8-1.3,1.4-1.9C558.6,390.6,558.6,391.3,558.6,392z"/>
	</g>
</g>
<g id="Layer_5">
	<g>
		<path fill="#00B4BA" d="M680.8,174.7c-61,0-110.5,49.5-110.5,110.5c0,9.3,1.3,18.3,3.5,27.1l-0.3,0.3c2.2,8.9,3.3,18.3,2.6,28.1
			c-1.5,22.1-11.1,41.7-25.7,56.1c16.4-12.2,37.1-19,59.2-17.5c7.4,0.6,14.5,2.1,21.1,4.3c15,7.6,32,11.9,49.9,11.9
			c61,0,110.5-49.5,110.5-110.5C791.3,224.2,741.8,174.7,680.8,174.7z M695.7,342.3c-8.2,0-16,0-24.3,0c0-7.5,0-14.7,0-22.6
			c7.9,0,15.8,0,24.3,0C695.7,327.5,695.7,334.6,695.7,342.3z M719.2,264.7c-1.3,5.4-4.7,11.4-8.9,15.1
			c-7.1,6.4-16.8,10.6-14.5,23.3c-9,0-16.5,0-24.3,0c-2.2-10.1-1-18.8,7.4-25.3c4.9-3.9,10-7.5,14.3-11.9c3.8-4,4.2-9.2,1.1-14.2
			c-2.9-4.9-7.5-7.1-12.9-6c-5.4,1-8.9,4.6-10.1,10.1c-0.4,1.5-0.6,3.2-0.8,5.4c-7.5,0-15,0-24,0c0.7-5.4,0.7-10.7,2.2-15.6
			c5.8-17.6,26.1-27.5,45.2-22.2C711.8,228.5,723.5,246.5,719.2,264.7z"/>
		<path fill="#00B4BA" d="M539.8,406c0.1-0.1,0.3-0.3,0.4-0.4C540.1,405.8,539.9,405.9,539.8,406L539.8,406z"/>
	</g>
</g>
<g id="LiveHelp">
	<g>
		<path fill="#1F74A6" d="M0,326.4v-85.9h19.2v68.8h36.4v17.1H0L0,326.4z"/>
		<path fill="#1F74A6" d="M71.7,251.9c-2.1-2.1-3.1-4.6-3.1-7.6c0-3.1,1-5.6,3.1-7.6c2.1-2.1,4.6-3.2,7.6-3.2c3.1,0,5.6,1.1,7.6,3.2
			c2.1,2.1,3.1,4.6,3.1,7.6c0,3.1-1.1,5.6-3.1,7.6c-2.1,2.1-4.6,3.2-7.6,3.2C76.4,255,73.8,254,71.7,251.9z M88.6,326.4H70.2v-66.1
			h18.3v66.1H88.6z"/>
		<path fill="#1F74A6" d="M126.2,326.4l-26-66.3h19.2l16.4,41.7l16.4-41.7h19.2l-26.1,66.3H126.2z"/>
		<path fill="#1F74A6" d="M239.8,316.8c-7.5,7.1-16.1,10.6-26.1,10.6c-10,0-18.3-3.1-24.9-9.3c-6.5-6.3-9.9-14.5-9.9-24.9
			c0-10.4,3.3-18.6,10-24.9c6.7-6.1,14.6-9.2,23.6-9.2c9,0,16.8,2.8,23.1,8.2c6.4,5.6,9.4,13.1,9.4,22.6v9.9H197
			c0.6,3.6,2.5,6.5,5.7,8.9c3.2,2.4,6.8,3.5,10.8,3.5c6.4,0,11.8-2.2,16-6.5L239.8,316.8z M222.2,277.7c-2.5-2.1-5.6-3.2-9.3-3.2
			c-3.6,0-6.9,1.1-10,3.3c-3.1,2.2-4.7,5.1-5.3,9h28.9C226.2,282.8,224.7,279.7,222.2,277.7z"/>
		<path fill="#833C8E" d="M316,240.6h19.2v85.9H316v-33.8h-34v33.8h-19.2v-85.9h19.2v35.8h34V240.6z"/>
		<path fill="#833C8E" d="M413.8,316.8c-7.5,7.1-16.1,10.6-26.1,10.6c-10,0-18.3-3.1-24.9-9.3c-6.5-6.3-9.9-14.5-9.9-24.9
			c0-10.4,3.3-18.6,10-24.9c6.7-6.1,14.6-9.2,23.6-9.2c9,0,16.8,2.8,23.1,8.2c6.4,5.6,9.4,13.1,9.4,22.6v9.9H371
			c0.6,3.6,2.5,6.5,5.7,8.9c3.2,2.4,6.8,3.5,10.8,3.5c6.4,0,11.8-2.2,16-6.5L413.8,316.8z M396.1,277.7c-2.5-2.1-5.6-3.2-9.3-3.2
			c-3.6,0-6.9,1.1-10,3.3c-3.1,2.2-4.7,5.1-5.3,9h28.9C400.2,282.8,398.6,279.7,396.1,277.7z"/>
		<path fill="#833C8E" d="M453.2,326.4h-18.3v-91.1h18.3V326.4z"/>
		<path fill="#833C8E" d="M511.5,259.2c7.6,0,14.6,3.2,20.6,9.6c6,6.4,9,14.6,9,24.3s-3.1,17.9-9,24.5s-13.1,9.9-21.1,9.9
			s-14.6-3.2-19.5-9.7v32.5h-18.3v-89.9h18.3v7.4C497.2,262.1,503.8,259.2,511.5,259.2z M491.3,293.5c0,5.4,1.5,9.7,4.4,13.2
			c2.9,3.3,6.5,5.1,10.8,5.1c4.3,0,7.9-1.7,11.1-5.1c3.2-3.3,4.7-7.8,4.7-13.1c0-5.3-1.5-9.7-4.7-13.3c-3.1-3.6-6.8-5.4-11.1-5.4
			s-7.9,1.8-11,5.3C492.7,283.6,491.3,288.1,491.3,293.5z"/>
	</g>
</g>
<g id="cancer.gov">
	<g>
		<path fill="#606161" d="M58.9,418.5c-6.7,0-12.5-2.2-17.2-6.8c-4.9-4.6-7.2-10.6-7.2-17.9c0-7.4,2.5-13.3,7.5-18.1
			c5-4.6,11.1-6.9,18.5-6.9s13.3,2.5,18.3,7.5l-6,7.4c-4.2-3.6-8.3-5.4-12.6-5.4c-4.2,0-7.9,1.4-11,4.2c-3.1,2.8-4.7,6.4-4.7,10.8
			s1.5,8.2,4.6,11.3s6.8,4.6,11.4,4.6c4.4,0,8.8-2.1,12.8-6.1l6,6.5C73.4,415.6,66.6,418.5,58.9,418.5z"/>
		<path fill="#606161" d="M130.1,417.9h-9.2v-6.4c-4,4.7-9.3,7.2-16,7.2c-5,0-9.2-1.4-12.5-4.3c-3.3-2.8-5-6.7-5-11.4
			c0-4.7,1.8-8.3,5.3-10.7c3.5-2.4,8.2-3.5,14.2-3.5h13.1V387c0-6.4-3.6-9.6-10.7-9.6c-4.4,0-9.2,1.7-13.9,4.9l-4.6-6.4
			c5.8-4.7,12.5-6.9,19.9-6.9c5.7,0,10.3,1.4,13.9,4.3c3.6,2.9,5.4,7.4,5.4,13.6v31H130.1z M119.9,399.9v-4h-11.4
			c-7.4,0-11,2.4-11,6.9c0,2.4,1,4.2,2.8,5.4s4.3,1.8,7.5,1.8s6.1-1,8.5-2.8C118.8,405.5,119.9,403,119.9,399.9z"/>
		<path fill="#606161" d="M156.2,391.7v26.1H146v-48.2h10.1v8.8c1.7-2.9,3.9-5.3,6.8-6.9s6-2.5,9.3-2.5c5.4,0,9.9,1.7,13.2,5
			c3.3,3.3,5,8.2,5,14.5v29.5h-10.1v-26.5c0-8.9-3.6-13.3-11-13.3c-3.5,0-6.5,1.1-9.2,3.5C157.4,383.8,156.2,387.3,156.2,391.7z"/>
		<path fill="#606161" d="M227.7,418.5c-6.7,0-12.5-2.2-17.2-6.8c-4.9-4.6-7.2-10.6-7.2-17.9c0-7.4,2.5-13.3,7.5-18.1
			c5-4.6,11.1-6.9,18.5-6.9s13.3,2.5,18.3,7.5l-6,7.4c-4.2-3.6-8.3-5.4-12.6-5.4c-4.2,0-7.9,1.4-11,4.2c-3.1,2.8-4.7,6.4-4.7,10.8
			s1.5,8.2,4.6,11.3s6.8,4.6,11.4,4.6c4.4,0,8.8-2.1,12.8-6.1l6,6.5C242,415.6,235.4,418.5,227.7,418.5z"/>
		<path fill="#606161" d="M305,398.1h-37.8c0.3,3.5,1.8,6.4,4.9,8.5c2.9,2.1,6.4,3.2,10.1,3.2c6,0,10.6-1.9,13.8-5.7l5.8,6.4
			c-5.1,5.4-11.9,8.1-20.3,8.1c-6.8,0-12.5-2.2-17.2-6.8c-4.7-4.4-7.1-10.6-7.1-18.2c0-7.6,2.4-13.6,7.2-18.1
			c4.9-4.4,10.6-6.7,17.1-6.7s12.1,1.9,16.7,6s6.9,9.4,6.9,16.4v6.9H305z M267.3,390.2H295c0-4-1.3-7.2-3.8-9.3s-5.7-3.3-9.3-3.3
			c-3.8,0-7.1,1.1-10,3.3C268.7,383.3,267.3,386.3,267.3,390.2z"/>
		<path fill="#606161" d="M343.2,379.1c-5,0-8.8,1.7-11.3,4.9c-2.5,3.3-3.8,7.6-3.8,13.2v20.7h-10.1v-48.2h10.1v9.7
			c1.7-3.1,3.9-5.6,6.7-7.5c2.8-1.9,5.8-2.9,8.9-3.1l0.1,10.3C343.6,379.1,343.5,379.1,343.2,379.1z"/>
		<path fill="#606161" d="M352.2,416.6c-1.3-1.4-1.9-2.9-1.9-4.9s0.7-3.5,1.9-4.7s2.9-1.9,4.7-1.9s3.5,0.7,4.9,1.9s1.9,2.9,1.9,4.7
			s-0.7,3.5-1.9,4.9c-1.4,1.4-2.9,1.9-4.9,1.9C355.1,418.5,353.5,417.9,352.2,416.6z"/>
		<path fill="#606161" d="M423.4,369.6v42.1c0,8.5-2.4,14.9-6.9,19.2c-4.6,4.3-10.6,6.4-17.8,6.4c-7.2,0-13.8-2.2-19.6-6.8l4.9-7.8
			c4.7,3.6,9.4,5.4,14.3,5.4s8.6-1.3,11.4-3.8c2.8-2.5,4.2-6.4,4.2-11.9v-6.1c-1.5,2.8-3.6,5.1-6.5,6.8c-2.8,1.7-6,2.5-9.4,2.5
			c-6.4,0-11.7-2.2-15.7-6.7c-4.2-4.4-6.1-10-6.1-16.7c0-6.7,2.1-12.2,6.1-16.7c4.2-4.4,9.3-6.7,15.7-6.7c6.4,0,11.5,2.6,15.6,7.9
			v-7.2H423.4z M385.7,391.9c0,4,1.3,7.4,3.6,10.3c2.5,2.9,5.7,4.3,9.9,4.3c4.2,0,7.5-1.4,10-4.2c2.5-2.8,3.9-6.3,3.9-10.4
			s-1.3-7.6-3.9-10.6c-2.6-2.9-6-4.3-10-4.3c-4.2,0-7.4,1.5-9.9,4.4C387,384.4,385.7,387.8,385.7,391.9z"/>
		<path fill="#606161" d="M480.1,411.3c-4.9,4.9-10.8,7.2-18.1,7.2s-13.3-2.4-18.1-7.2c-4.9-4.9-7.2-10.7-7.2-17.6
			c0-6.9,2.4-12.8,7.2-17.6s10.8-7.2,18.1-7.2s13.3,2.4,18.1,7.2c4.9,4.9,7.2,10.7,7.2,17.6C487.3,400.6,484.9,406.6,480.1,411.3z
			 M451,405.1c2.9,2.9,6.5,4.4,10.8,4.4c4.3,0,8.1-1.5,10.8-4.4c2.9-2.9,4.3-6.7,4.3-11.4c0-4.7-1.4-8.5-4.3-11.4
			c-2.9-2.9-6.5-4.4-10.8-4.4c-4.3,0-8.1,1.5-10.8,4.4c-2.9,2.9-4.3,6.7-4.3,11.4C446.9,398.4,448.2,402.2,451,405.1z"/>
		<path fill="#606161" d="M512.6,417.9l-19.3-48.2h10.6l14.7,36.5l14.7-36.5h10.6l-19.7,48.2H512.6z"/>
	</g>
</g>
</svg>
