<?xml version="1.0" encoding="utf-8"?>
<svg version="1.1" id="search" xmlns="http://www.w3.org/2000/svg" xmlns:xlink="http://www.w3.org/1999/xlink" x="0px" y="0px"
	 viewBox="0 0 16 16" style="enable-background:new 0 0 16 16;" xml:space="preserve">
<style type="text/css">
	.st0{fill:#FFFFFF;}
</style>
<path class="st0" d="M15.56,15.56c-0.59,0.59-1.54,0.59-2.12,0l-2.65-2.65c-1.09,0.7-2.38,1.12-3.77,1.12C3.14,14.02,0,10.89,0,7.01
	S3.14,0,7.01,0c3.87,0,7.01,3.14,7.01,7.01c0,1.39-0.42,2.68-1.12,3.77l2.65,2.65C16.15,14.02,16.15,14.97,15.56,15.56z M7.01,2
	C4.25,2,2,4.24,2,7.01s2.24,5.01,5.01,5.01s5.01-2.24,5.01-5.01S9.78,2,7.01,2z"/>
</svg>
