<?xml version="1.0" encoding="UTF-8" standalone="no"?>
<svg xmlns:dc="http://purl.org/dc/elements/1.1/" xmlns:cc="http://creativecommons.org/ns#" xmlns:rdf="http://www.w3.org/1999/02/22-rdf-syntax-ns#" xmlns:svg="http://www.w3.org/2000/svg" xmlns="http://www.w3.org/2000/svg" height="54" width="644.15997" xml:space="preserve" enable-background="new 0 0 691 100" viewBox="0 0 644.15997 54" y="0px" x="0px" id="Layer_1" version="1.1"><metadata id="metadata3528"><rdf:RDF><cc:Work rdf:about=""><dc:format>image/svg+xml</dc:format><dc:type rdf:resource="http://purl.org/dc/dcmitype/StillImage"/><dc:title/></cc:Work></rdf:RDF></metadata><defs id="defs3526"/><g transform="translate(-23,-23)" id="g3452"><g id="g3454"><path style="fill:#bb0e3d" id="path3456" d="m 122.996,39.157 4.68,0 0,20.97 -4.68,0 0,-20.97 z"/><path style="fill:#bb0e3d" id="path3458" d="m 147.506,39.157 4.68,0 0,20.97 -4.68,0 -9.99,-13.14 0,13.14 -4.68,0 0,-20.97 4.38,0 10.29,13.5 0,-13.5 z"/><path style="fill:#bb0e3d" id="path3460" d="m 162.251,43.342 c -0.45,0.371 -0.676,0.86 -0.676,1.47 0,0.61 0.275,1.095 0.825,1.455 0.55,0.36 1.82,0.785 3.811,1.275 1.989,0.49 3.534,1.225 4.635,2.205 1.1,0.98 1.65,2.41 1.65,4.29 0,1.88 -0.705,3.405 -2.115,4.575 -1.41,1.17 -3.266,1.755 -5.565,1.755 -3.32,0 -6.311,-1.23 -8.97,-3.69 l 2.79,-3.42 c 2.26,1.98 4.35,2.97 6.27,2.97 0.86,0 1.535,-0.185 2.025,-0.555 0.49,-0.37 0.735,-0.87 0.735,-1.5 0,-0.63 -0.261,-1.129 -0.78,-1.5 -0.521,-0.37 -1.55,-0.745 -3.09,-1.125 -2.44,-0.58 -4.226,-1.335 -5.355,-2.265 -1.13,-0.93 -1.694,-2.39 -1.694,-4.38 0,-1.99 0.715,-3.525 2.145,-4.605 1.43,-1.08 3.215,-1.62 5.355,-1.62 1.399,0 2.8,0.24 4.199,0.72 1.4,0.48 2.62,1.16 3.66,2.04 l -2.37,3.42 c -1.82,-1.38 -3.7,-2.07 -5.64,-2.07 -0.781,10e-4 -1.396,0.186 -1.845,0.555 z"/><path style="fill:#bb0e3d" id="path3462" d="m 185.186,43.208 0,16.92 -4.68,0 0,-16.92 -5.94,0 0,-4.05 16.561,0 0,4.05 -5.941,0 z"/><path style="fill:#bb0e3d" id="path3464" d="m 194.545,39.157 4.68,0 0,20.97 -4.68,0 0,-20.97 z"/><path style="fill:#bb0e3d" id="path3466" d="m 213.265,43.208 0,16.92 -4.68,0 0,-16.92 -5.94,0 0,-4.05 16.561,0 0,4.05 -5.941,0 z"/><path style="fill:#bb0e3d" id="path3468" d="m 228.174,54.712 c 0.78,0.97 1.83,1.455 3.15,1.455 1.319,0 2.364,-0.485 3.135,-1.455 0.77,-0.97 1.155,-2.295 1.155,-3.975 l 0,-11.58 4.68,0 0,11.73 c 0,3.041 -0.84,5.375 -2.52,7.005 -1.681,1.63 -3.831,2.445 -6.45,2.445 -2.62,0 -4.775,-0.82 -6.465,-2.46 -1.69,-1.64 -2.535,-3.97 -2.535,-6.99 l 0,-11.73 4.68,0 0,11.58 c 0,1.68 0.39,3.006 1.17,3.975 z"/><path style="fill:#bb0e3d" id="path3470" d="m 254.033,43.208 0,16.92 -4.68,0 0,-16.92 -5.94,0 0,-4.05 16.561,0 0,4.05 -5.941,0 z"/><path style="fill:#bb0e3d" id="path3472" d="m 280.462,57.232 c -2.12,2.07 -4.729,3.105 -7.83,3.105 -3.1,0 -5.71,-1.035 -7.83,-3.105 -2.12,-2.07 -3.18,-4.645 -3.18,-7.725 0,-3.08 1.06,-5.655 3.18,-7.725 2.12,-2.07 4.73,-3.105 7.83,-3.105 3.101,0 5.71,1.035 7.83,3.105 2.12,2.07 3.181,4.646 3.181,7.725 0,3.08 -1.061,5.656 -3.181,7.725 z m -1.59,-7.71 c 0,-1.87 -0.6,-3.465 -1.8,-4.785 -1.2,-1.32 -2.675,-1.98 -4.425,-1.98 -1.751,0 -3.226,0.66 -4.425,1.98 -1.2,1.32 -1.801,2.916 -1.801,4.785 0,1.87 0.601,3.46 1.801,4.77 1.199,1.31 2.674,1.965 4.425,1.965 1.75,0 3.225,-0.655 4.425,-1.965 1.2,-1.309 1.8,-2.899 1.8,-4.77 z"/><path style="fill:#bb0e3d" id="path3474" d="m 310.191,39.157 4.68,0 0,20.97 -4.68,0 -9.99,-13.14 0,13.14 -4.68,0 0,-20.97 4.38,0 10.29,13.5 0,-13.5 z"/><path style="fill:#bb0e3d" id="path3476" d="m 334.971,60.127 -1.949,-4.53 -8.79,0 -1.95,4.53 -4.98,0 9.061,-20.97 4.53,0 9.06,20.97 -4.982,0 z m -6.329,-14.73 -2.641,6.09 5.25,0 -2.609,-6.09 z"/><path style="fill:#bb0e3d" id="path3478" d="m 352.011,55.987 c 2.3,0 4.18,-0.91 5.64,-2.73 l 3,3.09 c -2.38,2.68 -5.185,4.02 -8.415,4.02 -3.229,0 -5.89,-1.02 -7.979,-3.06 -2.089,-2.04 -3.135,-4.615 -3.135,-7.725 0,-3.11 1.064,-5.705 3.194,-7.785 2.13,-2.08 4.735,-3.12 7.815,-3.12 3.439,0 6.319,1.311 8.64,3.93 l -2.91,3.3 c -1.479,-1.84 -3.319,-2.76 -5.52,-2.76 -1.76,0 -3.266,0.575 -4.515,1.725 -1.251,1.15 -1.875,2.7 -1.875,4.65 0,1.95 0.589,3.515 1.77,4.695 1.179,1.181 2.61,1.77 4.29,1.77 z"/><path style="fill:#bb0e3d" id="path3480" d="m 364.341,39.157 4.68,0 0,20.97 -4.68,0 0,-20.97 z"/><path style="fill:#bb0e3d" id="path3482" d="m 391.82,57.232 c -2.12,2.07 -4.729,3.105 -7.83,3.105 -3.1,0 -5.71,-1.035 -7.83,-3.105 -2.12,-2.07 -3.18,-4.645 -3.18,-7.725 0,-3.08 1.06,-5.655 3.18,-7.725 2.12,-2.07 4.73,-3.105 7.83,-3.105 3.101,0 5.71,1.035 7.83,3.105 2.12,2.07 3.181,4.646 3.181,7.725 0,3.08 -1.061,5.656 -3.181,7.725 z m -1.59,-7.71 c 0,-1.87 -0.6,-3.465 -1.8,-4.785 -1.2,-1.32 -2.675,-1.98 -4.425,-1.98 -1.751,0 -3.226,0.66 -4.425,1.98 -1.2,1.32 -1.801,2.916 -1.801,4.785 0,1.87 0.601,3.46 1.801,4.77 1.199,1.31 2.674,1.965 4.425,1.965 1.75,0 3.225,-0.655 4.425,-1.965 1.201,-1.309 1.8,-2.899 1.8,-4.77 z"/><path style="fill:#bb0e3d" id="path3484" d="m 413.63,39.157 4.68,0 0,20.97 -4.68,0 -9.99,-13.14 0,13.14 -4.68,0 0,-20.97 4.38,0 10.29,13.5 0,-13.5 z"/><path style="fill:#bb0e3d" id="path3486" d="m 438.409,60.127 -1.949,-4.53 -8.79,0 -1.95,4.53 -4.98,0 9.061,-20.97 4.53,0 9.06,20.97 -4.982,0 z m -6.329,-14.73 -2.641,6.09 5.25,0 -2.609,-6.09 z"/><path style="fill:#bb0e3d" id="path3488" d="m 445.819,60.127 0,-20.97 4.68,0 0,16.8 8.94,0 0,4.17 -13.62,0 z"/><path style="fill:#bb0e3d" id="path3490" d="m 486.799,41.902 c 2,1.83 3,4.375 3,7.635 0,3.26 -0.975,5.84 -2.925,7.74 -1.95,1.9 -4.925,2.85 -8.925,2.85 l -7.17,0 0,-20.97 7.41,0 c 3.74,0 6.61,0.915 8.61,2.745 z m -3.435,12.466 c 1.149,-1.08 1.725,-2.65 1.725,-4.71 0,-2.06 -0.575,-3.645 -1.725,-4.755 -1.15,-1.11 -2.915,-1.665 -5.295,-1.665 l -2.61,0 0,12.75 2.971,0 c 2.139,-10e-4 3.784,-0.541 4.934,-1.62 z"/><path style="fill:#bb0e3d" id="path3492" d="m 508.97,39.157 0,4.17 -10.44,0 0,4.32 9.391,0 0,3.99 -9.391,0 0,4.35 10.77,0 0,4.14 -15.45,0 0,-20.97 15.12,0 z"/><path style="fill:#bb0e3d" id="path3494" d="m 513.47,60.127 0,-20.97 4.68,0 0,16.8 8.94,0 0,4.17 -13.62,0 z"/><path style="fill:#bb0e3d" id="path3496" d="m 548.06,55.987 c 2.3,0 4.18,-0.91 5.64,-2.73 l 3,3.09 c -2.38,2.68 -5.185,4.02 -8.415,4.02 -3.229,0 -5.89,-1.02 -7.979,-3.06 -2.089,-2.04 -3.135,-4.615 -3.135,-7.725 0,-3.11 1.064,-5.705 3.194,-7.785 2.13,-2.08 4.735,-3.12 7.815,-3.12 3.439,0 6.319,1.311 8.64,3.93 l -2.91,3.3 c -1.479,-1.84 -3.319,-2.76 -5.52,-2.76 -1.76,0 -3.266,0.575 -4.515,1.725 -1.251,1.15 -1.875,2.7 -1.875,4.65 0,1.95 0.589,3.515 1.77,4.695 1.179,1.181 2.61,1.77 4.29,1.77 z"/><path style="fill:#bb0e3d" id="path3498" d="m 575.329,60.127 -1.949,-4.53 -8.79,0 -1.95,4.53 -4.98,0 9.061,-20.97 4.53,0 9.06,20.97 -4.982,0 z M 569,45.397 l -2.641,6.09 5.25,0 -2.609,-6.09 z m 1.979,-8.399 -4.29,0 3.811,-5.31 4.649,1.95 -4.17,3.36 z"/><path style="fill:#bb0e3d" id="path3500" d="m 597.409,39.157 4.68,0 0,20.97 -4.68,0 -9.99,-13.14 0,13.14 -4.68,0 0,-20.97 4.38,0 10.29,13.5 0,-13.5 z"/><path style="fill:#bb0e3d" id="path3502" d="m 616.879,55.987 c 2.3,0 4.18,-0.91 5.64,-2.73 l 3,3.09 c -2.38,2.68 -5.185,4.02 -8.415,4.02 -3.229,0 -5.89,-1.02 -7.979,-3.06 -2.089,-2.04 -3.135,-4.615 -3.135,-7.725 0,-3.11 1.064,-5.705 3.194,-7.785 2.13,-2.08 4.735,-3.12 7.815,-3.12 3.439,0 6.319,1.311 8.64,3.93 l -2.91,3.3 c -1.479,-1.84 -3.319,-2.76 -5.52,-2.76 -1.76,0 -3.266,0.575 -4.515,1.725 -1.251,1.15 -1.875,2.7 -1.875,4.65 0,1.95 0.589,3.515 1.77,4.695 1.18,1.181 2.61,1.77 4.29,1.77 z"/><path style="fill:#bb0e3d" id="path3504" d="m 644.329,39.157 0,4.17 -10.44,0 0,4.32 9.391,0 0,3.99 -9.391,0 0,4.35 10.771,0 0,4.14 -15.45,0 0,-20.97 15.119,0 z"/><path style="fill:#bb0e3d" id="path3506" d="m 665.839,46.118 c 0,3.36 -1.33,5.53 -3.99,6.51 l 5.311,7.5 -5.76,0 -4.65,-6.69 -3.24,0 0,6.69 -4.68,0 0,-20.97 7.95,0 c 3.26,0 5.584,0.55 6.975,1.65 1.389,1.1 2.084,2.87 2.084,5.31 z m -5.64,2.489 c 0.58,-0.52 0.87,-1.345 0.87,-2.475 0,-1.129 -0.301,-1.905 -0.9,-2.325 -0.6,-0.42 -1.65,-0.63 -3.15,-0.63 l -3.51,0 0,6.21 3.42,0 c 1.6,0 2.69,-0.259 3.27,-0.78 z"/></g><g id="g3508"><g id="g3510"><path style="fill:#606060" id="path3512" d="M 98,50 83,23 28.769,23 C 25.583,23 23,25.59 23,28.786 l 0,42.428 C 23,74.41 25.583,77 28.769,77 L 83,77 98,50 Z"/><path style="fill:#bb0e3d" id="path3514" d="M 96.501,25.815 C 95.446,24.069 93.541,23 91.486,23 L 87,23 102.201,50 87,77 l 4.486,0 c 2.055,0 3.96,-1.069 5.015,-2.815 L 110,50 96.501,25.815 Z"/></g><g id="g3516"><rect style="fill:#ffffff" id="rect3518" height="24" width="4" y="38" x="55"/><polygon style="fill:#ffffff" id="polygon3520" points="32,38 32,62 36,62 36,44.4 47,62 51,62 51,38 47,38 47,55.6 36,38 "/><polygon style="fill:#ffffff" id="polygon3522" points="67,38 63,38 63,62 67,62 67,52 78,52 78,62 82,62 82,38 78,38 78,48 67,48 "/></g></g></g></svg>